<?xml version="1.0" encoding="UTF-8"?>
<svg version="1.1" xmlns="http://www.w3.org/2000/svg" width="512" height="512">
<path d="M0 0 C1.01790619 0.00215515 2.03581238 0.0043103 3.08456421 0.00653076 C17.69363523 0.05620146 32.02575853 0.30709809 46.375 3.3125 C47.34985352 3.51117676 48.32470703 3.70985352 49.32910156 3.91455078 C97.7109774 14.03517194 141.69928269 35.9516877 177.375 70.3125 C178.3640332 71.26068604 178.3640332 71.26068604 179.37304688 72.22802734 C188.86130305 81.37247479 197.6012044 90.66984009 205.375 101.3125 C206.23306152 102.46355017 207.09113451 103.61459177 207.94921875 104.765625 C213.98736829 112.95680614 219.34595521 121.47054105 224.375 130.3125 C224.73948242 130.94430176 225.10396484 131.57610352 225.47949219 132.22705078 C247.08534998 169.97532572 256.85198095 212.74189997 256.6875 255.9375 C256.68534485 256.95540619 256.6831897 257.97331238 256.68096924 259.02206421 C256.63129854 273.63113523 256.38040191 287.96325853 253.375 302.3125 C253.07698486 303.77478027 253.07698486 303.77478027 252.77294922 305.26660156 C242.65232806 353.6484774 220.7358123 397.63678269 186.375 433.3125 C185.74287598 433.97185547 185.11075195 434.63121094 184.45947266 435.31054688 C175.31502521 444.79880305 166.01765991 453.5387044 155.375 461.3125 C154.22394983 462.17056152 153.07290823 463.02863451 151.921875 463.88671875 C143.73224019 469.92427396 135.22961724 475.30707302 126.375 480.3125 C125.66778809 480.7146875 124.96057617 481.116875 124.23193359 481.53125 C101.09654164 494.5566741 75.92537591 503.30551461 49.9375 508.625 C49.21860596 508.77235596 48.49971191 508.91971191 47.7590332 509.0715332 C33.08339502 511.86090125 18.55831162 512.66142619 3.64770508 512.62817383 C0.70811513 512.6250221 -2.2304558 512.64854926 -5.16992188 512.67382812 C-18.54306192 512.71848737 -31.43916711 511.51301542 -44.625 509.3125 C-46.33055054 509.03031616 -46.33055054 509.03031616 -48.07055664 508.74243164 C-91.33802759 500.97044532 -132.38793216 480.98345309 -165.625 452.3125 C-166.37007813 451.67828125 -167.11515625 451.0440625 -167.8828125 450.390625 C-181.38779833 438.57948485 -194.05918743 425.82889772 -204.625 411.3125 C-205.48149066 410.16255169 -206.33826433 409.01281411 -207.1953125 407.86328125 C-213.23534209 399.67315742 -218.61867614 391.16870382 -223.625 382.3125 C-224.0271875 381.60528809 -224.429375 380.89807617 -224.84375 380.16943359 C-237.8691741 357.03404164 -246.61801461 331.86287591 -251.9375 305.875 C-252.08485596 305.15610596 -252.23221191 304.43721191 -252.3840332 303.6965332 C-255.35789088 288.05024391 -255.99800362 272.57681954 -255.9375 256.6875 C-255.93534485 255.66959381 -255.9331897 254.65168762 -255.93096924 253.60293579 C-255.88129854 238.99386477 -255.63040191 224.66174147 -252.625 210.3125 C-252.42632324 209.33764648 -252.22764648 208.36279297 -252.02294922 207.35839844 C-241.90232806 158.9765226 -219.9858123 114.98821731 -185.625 79.3125 C-184.99287598 78.65314453 -184.36075195 77.99378906 -183.70947266 77.31445312 C-174.56502521 67.82619695 -165.26765991 59.0862956 -154.625 51.3125 C-153.47394983 50.45443848 -152.32290823 49.59636549 -151.171875 48.73828125 C-142.98224019 42.70072604 -134.47961724 37.31792698 -125.625 32.3125 C-124.91778809 31.9103125 -124.21057617 31.508125 -123.48193359 31.09375 C-100.34654164 18.0683259 -75.17537591 9.31948539 -49.1875 4 C-48.46860596 3.85264404 -47.74971191 3.70528809 -47.0090332 3.5534668 C-31.36274391 0.57960912 -15.88931954 -0.06050362 0 0 Z " fill="#C1E8EC" transform="translate(255.625,-0.3125)"/>
<path d="M0 0 C1.8455102 -0.01064158 1.8455102 -0.01064158 3.72830343 -0.02149814 C7.12715926 -0.03601406 10.52461326 -0.0282213 13.92336535 -0.01077521 C17.59488835 0.00262723 21.26630751 -0.01284855 24.93782043 -0.02459717 C32.12378409 -0.04295679 39.30947547 -0.03447277 46.49543059 -0.01650894 C52.3366288 -0.00247173 58.17775321 0.00140745 64.01896667 -0.00195122 C64.85095671 -0.00242866 65.68294674 -0.0029061 66.54014859 -0.00339801 C68.23042748 -0.00442436 69.92070636 -0.00547972 71.61098522 -0.00656378 C86.55064774 -0.01512744 101.49017899 0.0015333 116.42980957 0.03126526 C130.91977452 0.06010185 145.40955036 0.06718578 159.89953613 0.05177307 C175.68585591 0.03500443 191.47208594 0.03098347 207.25840807 0.04848343 C208.94239838 0.05032778 210.6263887 0.05216251 212.31037903 0.0539875 C213.13889062 0.05489959 213.96740221 0.05581168 214.82102022 0.05675141 C220.6538228 0.06235268 226.48658151 0.05905345 232.31938171 0.05244255 C239.42962048 0.0447036 246.53967324 0.05148211 253.64987457 0.07661759 C257.27624124 0.08909971 260.9023185 0.09527502 264.52869606 0.08407593 C268.46242407 0.07215722 272.39565447 0.09131888 276.3293457 0.11352539 C277.47176145 0.10528462 278.6141772 0.09704386 279.79121161 0.08855337 C286.16398883 0.15500421 291.58632995 0.47373739 296.66467285 4.62818909 C302.59598778 10.81419813 303.53301241 16.63038585 303.41311646 24.94485474 C303.42106527 26.05354272 303.42901408 27.16223071 303.43720376 28.3045153 C303.45638664 32.00351143 303.43285455 35.70096546 303.40930176 39.3999176 C303.41415986 42.05822339 303.4213684 44.71642859 303.431427 47.37471008 C303.45035773 53.83535743 303.4372441 60.29555651 303.41290112 66.75617046 C303.38559417 74.28518575 303.38894267 81.81409552 303.39316778 89.34314775 C303.39954082 102.77931777 303.37625034 116.2152754 303.33703613 129.65138245 C303.29902302 142.67944301 303.28486381 155.70725476 303.29602051 168.73536682 C303.30814438 182.93481175 303.30776741 197.13414741 303.28504884 211.3335833 C303.28263435 212.84848686 303.28022238 214.36339042 303.27781296 215.87829399 C303.27660588 216.62358729 303.2753988 217.36888058 303.27415515 218.13675852 C303.26640685 223.38096525 303.26718015 228.62513121 303.27098465 233.8693409 C303.27523501 240.26225694 303.26473179 246.65495543 303.23575754 253.04781026 C303.22130042 256.30763283 303.21523838 259.56707585 303.22224426 262.82693291 C303.22869341 266.36447414 303.21051209 269.90106369 303.18606567 273.43850708 C303.19362432 274.46351226 303.20118297 275.48851744 303.20897067 276.54458338 C303.12300411 283.57835359 301.99461116 289.25528384 296.8482666 294.46803284 C296.27205566 294.8302594 295.69584473 295.19248596 295.10217285 295.56568909 C294.52338379 295.94596252 293.94459473 296.32623596 293.3482666 296.71803284 C290.03633448 298.5084741 287.30735648 298.75633476 283.61984062 298.76799679 C282.5709157 298.77368803 281.52199077 298.77937927 280.44128025 298.78524297 C279.28498241 298.78642285 278.12868458 298.78760273 276.93734741 298.78881836 C275.09930375 298.79645009 275.09930375 298.79645009 273.22412789 298.80423599 C269.81639823 298.8172479 266.40871227 298.82572756 263.0009675 298.83220899 C260.07960038 298.83857869 257.15825083 298.84864899 254.23689465 298.85876965 C244.61139446 298.89209913 234.98588358 298.91361627 225.36034459 298.93196949 C222.85392855 298.93676453 220.34751294 298.94174785 217.84109735 298.94677472 C202.27674299 298.97774628 186.7123849 299.00443183 171.14800835 299.0211935 C167.54256051 299.02514301 163.93711274 299.029146 160.33166504 299.03321838 C159.43554729 299.03422674 158.53942954 299.03523511 157.61615671 299.03627402 C143.10175776 299.0532785 128.58752937 299.09438497 114.07321368 299.14524137 C99.17160223 299.19702526 84.27007848 299.22613679 69.3683778 299.23339039 C61.00163585 299.23805171 52.6351732 299.25279299 44.26852036 299.29313469 C37.14244247 299.32745294 30.01669428 299.34136687 22.8905385 299.32871055 C19.25580698 299.32288769 15.62177256 299.32671961 11.98714638 299.35688019 C8.04245327 299.38934594 4.09870004 299.37507827 0.15390015 299.35644531 C-0.98901336 299.37324024 -2.13192686 299.39003517 -3.30947411 299.40733904 C-10.76686305 299.31933451 -15.92141351 297.95150492 -21.33532715 292.62818909 C-25.9394022 286.85214805 -25.90713025 280.54363538 -25.84999084 273.43177795 C-25.85693637 272.32394439 -25.8638819 271.21611083 -25.8710379 270.07470655 C-25.88929325 266.37292656 -25.87904712 262.67178848 -25.86877441 258.96998596 C-25.87583357 256.31184915 -25.88444206 253.65375752 -25.8948822 250.99563599 C-25.91648943 244.53161929 -25.91640389 238.06777887 -25.90825666 231.60373795 C-25.90194928 226.34892651 -25.90310044 221.09416637 -25.90952873 215.83935547 C-25.91043039 215.09062628 -25.91133204 214.34189708 -25.91226102 213.57047912 C-25.91411227 212.04931023 -25.91597483 210.52814136 -25.91784858 209.00697249 C-25.93441537 194.75280473 -25.92571713 180.49873604 -25.908863 166.24457425 C-25.89416434 153.21065005 -25.90879868 140.17695634 -25.93763316 127.14306182 C-25.96704129 113.7498378 -25.9779955 100.3567201 -25.96845096 86.96346521 C-25.96742844 85.4479844 -25.96643383 83.93250356 -25.96546745 82.41702271 C-25.96499106 81.67143442 -25.96451467 80.92584614 -25.96402385 80.15766427 C-25.96186173 74.91093593 -25.97165288 69.6643085 -25.98623848 64.41760254 C-26.00377323 58.0209936 -26.0036282 51.62467855 -25.98088682 45.22808111 C-25.96975503 41.96614599 -25.96926876 38.70483439 -25.98518753 35.44290352 C-26.00109632 31.90297477 -25.98618494 28.36446202 -25.96351624 24.82460022 C-25.97535196 23.79891292 -25.98718769 22.77322562 -25.99938208 21.71645689 C-25.91397416 15.1503732 -24.84584571 10.54825986 -20.33532715 5.62818909 C-14.29400226 -0.05849726 -7.96056789 -0.08247358 0 0 Z " fill="#FDF87A" transform="translate(117.3353271484375,106.37181091308594)"/>
<path d="M0 0 C1.8455102 -0.01064158 1.8455102 -0.01064158 3.72830343 -0.02149814 C7.12715926 -0.03601406 10.52461326 -0.0282213 13.92336535 -0.01077521 C17.59488835 0.00262723 21.26630751 -0.01284855 24.93782043 -0.02459717 C32.12378409 -0.04295679 39.30947547 -0.03447277 46.49543059 -0.01650894 C52.3366288 -0.00247173 58.17775321 0.00140745 64.01896667 -0.00195122 C64.85095671 -0.00242866 65.68294674 -0.0029061 66.54014859 -0.00339801 C68.23042748 -0.00442436 69.92070636 -0.00547972 71.61098522 -0.00656378 C86.55064774 -0.01512744 101.49017899 0.0015333 116.42980957 0.03126526 C130.91977452 0.06010185 145.40955036 0.06718578 159.89953613 0.05177307 C175.68585591 0.03500443 191.47208594 0.03098347 207.25840807 0.04848343 C208.94239838 0.05032778 210.6263887 0.05216251 212.31037903 0.0539875 C213.13889062 0.05489959 213.96740221 0.05581168 214.82102022 0.05675141 C220.6538228 0.06235268 226.48658151 0.05905345 232.31938171 0.05244255 C239.42962048 0.0447036 246.53967324 0.05148211 253.64987457 0.07661759 C257.27624124 0.08909971 260.9023185 0.09527502 264.52869606 0.08407593 C268.46242407 0.07215722 272.39565447 0.09131888 276.3293457 0.11352539 C277.47176145 0.10528462 278.6141772 0.09704386 279.79121161 0.08855337 C286.16398883 0.15500421 291.58632995 0.47373739 296.66467285 4.62818909 C302.59598778 10.81419813 303.53301241 16.63038585 303.41311646 24.94485474 C303.42106527 26.05354272 303.42901408 27.16223071 303.43720376 28.3045153 C303.45638664 32.00351143 303.43285455 35.70096546 303.40930176 39.3999176 C303.41415986 42.05822339 303.4213684 44.71642859 303.431427 47.37471008 C303.45035773 53.83535743 303.4372441 60.29555651 303.41290112 66.75617046 C303.38559417 74.28518575 303.38894267 81.81409552 303.39316778 89.34314775 C303.39954082 102.77931777 303.37625034 116.2152754 303.33703613 129.65138245 C303.29902302 142.67944301 303.28486381 155.70725476 303.29602051 168.73536682 C303.30814438 182.93481175 303.30776741 197.13414741 303.28504884 211.3335833 C303.28263435 212.84848686 303.28022238 214.36339042 303.27781296 215.87829399 C303.27660588 216.62358729 303.2753988 217.36888058 303.27415515 218.13675852 C303.26640685 223.38096525 303.26718015 228.62513121 303.27098465 233.8693409 C303.27523501 240.26225694 303.26473179 246.65495543 303.23575754 253.04781026 C303.22130042 256.30763283 303.21523838 259.56707585 303.22224426 262.82693291 C303.22869341 266.36447414 303.21051209 269.90106369 303.18606567 273.43850708 C303.19362432 274.46351226 303.20118297 275.48851744 303.20897067 276.54458338 C303.12300411 283.57835359 301.99461116 289.25528384 296.8482666 294.46803284 C296.27205566 294.8302594 295.69584473 295.19248596 295.10217285 295.56568909 C294.52338379 295.94596252 293.94459473 296.32623596 293.3482666 296.71803284 C290.03633448 298.5084741 287.30735648 298.75633476 283.61984062 298.76799679 C282.5709157 298.77368803 281.52199077 298.77937927 280.44128025 298.78524297 C279.28498241 298.78642285 278.12868458 298.78760273 276.93734741 298.78881836 C275.09930375 298.79645009 275.09930375 298.79645009 273.22412789 298.80423599 C269.81639823 298.8172479 266.40871227 298.82572756 263.0009675 298.83220899 C260.07960038 298.83857869 257.15825083 298.84864899 254.23689465 298.85876965 C244.61139446 298.89209913 234.98588358 298.91361627 225.36034459 298.93196949 C222.85392855 298.93676453 220.34751294 298.94174785 217.84109735 298.94677472 C202.27674299 298.97774628 186.7123849 299.00443183 171.14800835 299.0211935 C167.54256051 299.02514301 163.93711274 299.029146 160.33166504 299.03321838 C159.43554729 299.03422674 158.53942954 299.03523511 157.61615671 299.03627402 C143.10175776 299.0532785 128.58752937 299.09438497 114.07321368 299.14524137 C99.17160223 299.19702526 84.27007848 299.22613679 69.3683778 299.23339039 C61.00163585 299.23805171 52.6351732 299.25279299 44.26852036 299.29313469 C37.14244247 299.32745294 30.01669428 299.34136687 22.8905385 299.32871055 C19.25580698 299.32288769 15.62177256 299.32671961 11.98714638 299.35688019 C8.04245327 299.38934594 4.09870004 299.37507827 0.15390015 299.35644531 C-0.98901336 299.37324024 -2.13192686 299.39003517 -3.30947411 299.40733904 C-10.76686305 299.31933451 -15.92141351 297.95150492 -21.33532715 292.62818909 C-25.9394022 286.85214805 -25.90713025 280.54363538 -25.84999084 273.43177795 C-25.85693637 272.32394439 -25.8638819 271.21611083 -25.8710379 270.07470655 C-25.88929325 266.37292656 -25.87904712 262.67178848 -25.86877441 258.96998596 C-25.87583357 256.31184915 -25.88444206 253.65375752 -25.8948822 250.99563599 C-25.91648943 244.53161929 -25.91640389 238.06777887 -25.90825666 231.60373795 C-25.90194928 226.34892651 -25.90310044 221.09416637 -25.90952873 215.83935547 C-25.91043039 215.09062628 -25.91133204 214.34189708 -25.91226102 213.57047912 C-25.91411227 212.04931023 -25.91597483 210.52814136 -25.91784858 209.00697249 C-25.93441537 194.75280473 -25.92571713 180.49873604 -25.908863 166.24457425 C-25.89416434 153.21065005 -25.90879868 140.17695634 -25.93763316 127.14306182 C-25.96704129 113.7498378 -25.9779955 100.3567201 -25.96845096 86.96346521 C-25.96742844 85.4479844 -25.96643383 83.93250356 -25.96546745 82.41702271 C-25.96499106 81.67143442 -25.96451467 80.92584614 -25.96402385 80.15766427 C-25.96186173 74.91093593 -25.97165288 69.6643085 -25.98623848 64.41760254 C-26.00377323 58.0209936 -26.0036282 51.62467855 -25.98088682 45.22808111 C-25.96975503 41.96614599 -25.96926876 38.70483439 -25.98518753 35.44290352 C-26.00109632 31.90297477 -25.98618494 28.36446202 -25.96351624 24.82460022 C-25.97535196 23.79891292 -25.98718769 22.77322562 -25.99938208 21.71645689 C-25.91397416 15.1503732 -24.84584571 10.54825986 -20.33532715 5.62818909 C-14.29400226 -0.05849726 -7.96056789 -0.08247358 0 0 Z M8.66467285 69.62818909 C8.66467285 133.97818909 8.66467285 198.32818909 8.66467285 264.62818909 C94.46467285 264.62818909 180.26467285 264.62818909 268.66467285 264.62818909 C268.66467285 200.27818909 268.66467285 135.92818909 268.66467285 69.62818909 C182.86467285 69.62818909 97.06467285 69.62818909 8.66467285 69.62818909 Z " fill="#FA5959" transform="translate(117.3353271484375,106.37181091308594)"/>
<path d="M0 0 C1.45136348 1.19164581 2.88971216 2.39937752 4.3125 3.625 C4.91835938 4.13546875 5.52421875 4.6459375 6.1484375 5.171875 C17.30559077 15.369816 23.54228189 30.23587317 24.55078125 45.1484375 C24.90539453 63.55100009 20.02461691 78.76974524 7.921875 92.984375 C-3.25329134 104.29337567 -18.81895814 111.72136249 -34.79248047 112.00415039 C-35.62408691 112.00278076 -36.45569336 112.00141113 -37.3125 112 C-38.61985107 112.00084595 -38.61985107 112.00084595 -39.95361328 112.00170898 C-46.67878287 111.88857182 -52.36105372 110.78480161 -58.7421875 108.59765625 C-61.85390725 107.57004588 -64.40079288 106.73354383 -67.6875 106.625 C-70.62380888 108.3381426 -70.62380888 108.3381426 -73.125 111 C-74.01058594 111.83273437 -74.89617187 112.66546875 -75.80859375 113.5234375 C-77.92867055 117.0231069 -77.7675554 117.15448808 -76.88183594 120.82373047 C-76.50357794 123.67962258 -76.40826185 125.1146312 -77.80311584 127.66403198 C-79.58435549 129.76125021 -81.46040961 131.65337464 -83.45703125 133.546875 C-84.16719894 134.25475159 -84.87736664 134.96262817 -85.60905457 135.69195557 C-87.11491156 137.18273598 -88.63287534 138.66137284 -90.16186523 140.12841797 C-92.48023296 142.35600697 -94.75653074 144.6205322 -97.02929688 146.89453125 C-98.50288222 148.34351525 -99.9787262 149.79020653 -101.45703125 151.234375 C-102.46706963 152.2360672 -102.46706963 152.2360672 -103.49751282 153.25799561 C-110.07395309 159.51809522 -117.46134968 164.37191944 -126.8125 164.1875 C-135.10371079 163.83716715 -139.81779897 161.8637098 -145.5 155.875 C-150.63915906 149.50385076 -151.98056745 143.81993451 -152.28125 135.7265625 C-150.59579704 126.92228849 -145.21122375 120.36564511 -139.04296875 114.17578125 C-138.31435135 113.43289352 -137.58573395 112.6900058 -136.83503723 111.92460632 C-135.30429674 110.37309067 -133.76697661 108.82804104 -132.22338867 107.28930664 C-129.86657118 104.92905892 -127.54966804 102.53379983 -125.23242188 100.13476562 C-123.7340547 98.6253336 -122.23347812 97.11809089 -120.73046875 95.61328125 C-120.04373581 94.89578201 -119.35700287 94.17828278 -118.64945984 93.43904114 C-113.78484574 88.68768715 -113.78484574 88.68768715 -110.51992798 88.50117493 C-108.56342583 88.80469008 -106.62341617 89.20996903 -104.6875 89.625 C-102.19528148 87.81997409 -100.63230871 86.45279127 -98.6875 84.1875 C-98.19894531 83.65833984 -97.71039063 83.12917969 -97.20703125 82.58398438 C-96.0122844 81.28381869 -94.84677642 79.95688927 -93.6875 78.625 C-94.03683594 77.55121094 -94.38617188 76.47742188 -94.74609375 75.37109375 C-95.20602249 73.93498974 -95.66564142 72.49878648 -96.125 71.0625 C-96.35509766 70.35802734 -96.58519531 69.65355469 -96.82226562 68.92773438 C-102.12431398 52.25317651 -100.38308605 35.56556757 -92.625 19.9375 C-83.22168955 3.63709191 -68.56831697 -6.72393034 -50.4375 -11.6875 C-32.64615507 -14.99527713 -14.47198057 -10.87222742 0 0 Z " fill="#F95959" transform="translate(319.6875,197.375)"/>
<path d="M0 0 C1.8455102 -0.01064158 1.8455102 -0.01064158 3.72830343 -0.02149814 C7.12715926 -0.03601406 10.52461326 -0.0282213 13.92336535 -0.01077521 C17.59488835 0.00262723 21.26630751 -0.01284855 24.93782043 -0.02459717 C32.12378409 -0.04295679 39.30947547 -0.03447277 46.49543059 -0.01650894 C52.3366288 -0.00247173 58.17775321 0.00140745 64.01896667 -0.00195122 C64.85095671 -0.00242866 65.68294674 -0.0029061 66.54014859 -0.00339801 C68.23042748 -0.00442436 69.92070636 -0.00547972 71.61098522 -0.00656378 C86.55064774 -0.01512744 101.49017899 0.0015333 116.42980957 0.03126526 C130.91977452 0.06010185 145.40955036 0.06718578 159.89953613 0.05177307 C175.68585591 0.03500443 191.47208594 0.03098347 207.25840807 0.04848343 C208.94239838 0.05032778 210.6263887 0.05216251 212.31037903 0.0539875 C213.13889062 0.05489959 213.96740221 0.05581168 214.82102022 0.05675141 C220.6538228 0.06235268 226.48658151 0.05905345 232.31938171 0.05244255 C239.42962048 0.0447036 246.53967324 0.05148211 253.64987457 0.07661759 C257.27624124 0.08909971 260.9023185 0.09527502 264.52869606 0.08407593 C268.46242407 0.07215722 272.39565447 0.09131888 276.3293457 0.11352539 C277.47176145 0.10528462 278.6141772 0.09704386 279.79121161 0.08855337 C286.16398883 0.15500421 291.58632995 0.47373739 296.66467285 4.62818909 C302.59598778 10.81419813 303.53301241 16.63038585 303.41311646 24.94485474 C303.42106527 26.05354272 303.42901408 27.16223071 303.43720376 28.3045153 C303.45638664 32.00351143 303.43285455 35.70096546 303.40930176 39.3999176 C303.41415986 42.05822339 303.4213684 44.71642859 303.431427 47.37471008 C303.45035773 53.83535743 303.4372441 60.29555651 303.41290112 66.75617046 C303.38559417 74.28518575 303.38894267 81.81409552 303.39316778 89.34314775 C303.39954082 102.77931777 303.37625034 116.2152754 303.33703613 129.65138245 C303.29902302 142.67944301 303.28486381 155.70725476 303.29602051 168.73536682 C303.30814438 182.93481175 303.30776741 197.13414741 303.28504884 211.3335833 C303.28263435 212.84848686 303.28022238 214.36339042 303.27781296 215.87829399 C303.27660588 216.62358729 303.2753988 217.36888058 303.27415515 218.13675852 C303.26640685 223.38096525 303.26718015 228.62513121 303.27098465 233.8693409 C303.27523501 240.26225694 303.26473179 246.65495543 303.23575754 253.04781026 C303.22130042 256.30763283 303.21523838 259.56707585 303.22224426 262.82693291 C303.22869341 266.36447414 303.21051209 269.90106369 303.18606567 273.43850708 C303.19362432 274.46351226 303.20118297 275.48851744 303.20897067 276.54458338 C303.12300411 283.57835359 301.99461116 289.25528384 296.8482666 294.46803284 C296.27205566 294.8302594 295.69584473 295.19248596 295.10217285 295.56568909 C294.52338379 295.94596252 293.94459473 296.32623596 293.3482666 296.71803284 C290.03633448 298.5084741 287.30735648 298.75633476 283.61984062 298.76799679 C282.5709157 298.77368803 281.52199077 298.77937927 280.44128025 298.78524297 C279.28498241 298.78642285 278.12868458 298.78760273 276.93734741 298.78881836 C275.09930375 298.79645009 275.09930375 298.79645009 273.22412789 298.80423599 C269.81639823 298.8172479 266.40871227 298.82572756 263.0009675 298.83220899 C260.07960038 298.83857869 257.15825083 298.84864899 254.23689465 298.85876965 C244.61139446 298.89209913 234.98588358 298.91361627 225.36034459 298.93196949 C222.85392855 298.93676453 220.34751294 298.94174785 217.84109735 298.94677472 C202.27674299 298.97774628 186.7123849 299.00443183 171.14800835 299.0211935 C167.54256051 299.02514301 163.93711274 299.029146 160.33166504 299.03321838 C159.43554729 299.03422674 158.53942954 299.03523511 157.61615671 299.03627402 C143.10175776 299.0532785 128.58752937 299.09438497 114.07321368 299.14524137 C99.17160223 299.19702526 84.27007848 299.22613679 69.3683778 299.23339039 C61.00163585 299.23805171 52.6351732 299.25279299 44.26852036 299.29313469 C37.14244247 299.32745294 30.01669428 299.34136687 22.8905385 299.32871055 C19.25580698 299.32288769 15.62177256 299.32671961 11.98714638 299.35688019 C8.04245327 299.38934594 4.09870004 299.37507827 0.15390015 299.35644531 C-0.98901336 299.37324024 -2.13192686 299.39003517 -3.30947411 299.40733904 C-10.76686305 299.31933451 -15.92141351 297.95150492 -21.33532715 292.62818909 C-25.9394022 286.85214805 -25.90713025 280.54363538 -25.84999084 273.43177795 C-25.85693637 272.32394439 -25.8638819 271.21611083 -25.8710379 270.07470655 C-25.88929325 266.37292656 -25.87904712 262.67178848 -25.86877441 258.96998596 C-25.87583357 256.31184915 -25.88444206 253.65375752 -25.8948822 250.99563599 C-25.91648943 244.53161929 -25.91640389 238.06777887 -25.90825666 231.60373795 C-25.90194928 226.34892651 -25.90310044 221.09416637 -25.90952873 215.83935547 C-25.91043039 215.09062628 -25.91133204 214.34189708 -25.91226102 213.57047912 C-25.91411227 212.04931023 -25.91597483 210.52814136 -25.91784858 209.00697249 C-25.93441537 194.75280473 -25.92571713 180.49873604 -25.908863 166.24457425 C-25.89416434 153.21065005 -25.90879868 140.17695634 -25.93763316 127.14306182 C-25.96704129 113.7498378 -25.9779955 100.3567201 -25.96845096 86.96346521 C-25.96742844 85.4479844 -25.96643383 83.93250356 -25.96546745 82.41702271 C-25.96499106 81.67143442 -25.96451467 80.92584614 -25.96402385 80.15766427 C-25.96186173 74.91093593 -25.97165288 69.6643085 -25.98623848 64.41760254 C-26.00377323 58.0209936 -26.0036282 51.62467855 -25.98088682 45.22808111 C-25.96975503 41.96614599 -25.96926876 38.70483439 -25.98518753 35.44290352 C-26.00109632 31.90297477 -25.98618494 28.36446202 -25.96351624 24.82460022 C-25.97535196 23.79891292 -25.98718769 22.77322562 -25.99938208 21.71645689 C-25.91397416 15.1503732 -24.84584571 10.54825986 -20.33532715 5.62818909 C-14.29400226 -0.05849726 -7.96056789 -0.08247358 0 0 Z M-16.33532715 13.62818909 C-17.51582643 15.98918764 -17.46269072 17.39693944 -17.46675491 20.03015614 C-17.47059606 20.96112136 -17.4744372 21.89208658 -17.47839475 22.85126287 C-17.47752826 23.88090978 -17.47666178 24.91055669 -17.47576904 25.97140503 C-17.47874017 27.05989453 -17.48171129 28.14838403 -17.48477244 29.26985806 C-17.49349073 32.94179961 -17.49497033 36.61370869 -17.49645996 40.28565979 C-17.50108591 42.90835134 -17.50611026 45.53104222 -17.51150513 48.1537323 C-17.52509977 55.29628207 -17.53111497 62.43882624 -17.53551579 69.5813868 C-17.5382764 74.03954135 -17.54251343 78.49769371 -17.54701996 82.95584679 C-17.55921429 95.29417059 -17.56951316 107.63249264 -17.57289505 119.97082233 C-17.57311462 120.76084649 -17.57333418 121.55087064 -17.5735604 122.36483492 C-17.57377868 123.15677253 -17.57399696 123.94871015 -17.57422185 124.76464587 C-17.57466532 126.36946952 -17.57511188 127.97429317 -17.57556152 129.57911682 C-17.57578295 130.37516841 -17.57600438 131.17122 -17.57623252 131.99139436 C-17.58018099 144.89186903 -17.59763574 157.79228722 -17.62092105 170.69274006 C-17.64462348 183.93092505 -17.6570964 197.16908169 -17.65826297 210.40728825 C-17.65918038 217.84267608 -17.6649491 225.27799034 -17.68308258 232.71335793 C-17.70007506 239.70563175 -17.70174447 246.69776364 -17.69294357 253.69005203 C-17.69217037 256.25998623 -17.69655294 258.82992778 -17.70640182 261.39984322 C-17.71903668 264.90140487 -17.71329033 268.40246467 -17.70281982 271.90402222 C-17.71087623 272.92697697 -17.71893263 273.94993171 -17.72723317 275.00388509 C-17.70753618 281.82924381 -17.70753618 281.82924381 -14.33532715 287.62818909 C-11.25536823 290.3889802 -9.31897523 291.00412248 -5.20591927 291.01129913 C-3.64244544 291.02488409 -3.64244544 291.02488409 -2.04738629 291.0387435 C-0.90362778 291.03341557 0.24013073 291.02808764 1.41854858 291.02259827 C3.24267295 291.03173492 3.24267295 291.03173492 5.1036483 291.04105616 C8.48086074 291.05484301 11.85758779 291.05513212 15.23479199 291.04968119 C18.87634487 291.04701448 22.51783513 291.06153605 26.15936279 291.07377625 C33.29432726 291.09484797 40.42921051 291.09937009 47.56420241 291.09758836 C53.36307457 291.09628156 59.16192135 291.10008067 64.96078873 291.10751343 C66.6301343 291.10961259 68.29947988 291.11171019 69.96882546 291.11380625 C70.79966751 291.11484978 71.63050957 291.1158933 72.48652865 291.11696845 C88.20608865 291.13587799 103.92560201 291.1348185 119.64516868 291.12799913 C134.0289556 291.12242362 148.4125644 291.1432481 162.79630969 291.17635959 C177.56122269 291.21008504 192.32605034 291.22526633 207.09100258 291.22064257 C215.38212373 291.21839665 223.67308027 291.22365879 231.96416855 291.24853516 C239.02296557 291.26953358 246.08150773 291.27315498 253.14031516 291.25423557 C256.74218092 291.24506835 260.34357132 291.24396395 263.94540024 291.26459122 C267.84944064 291.286702 271.75276784 291.27010697 275.65682983 291.24964905 C276.7961269 291.2621669 277.93542396 291.27468474 279.10924518 291.28758192 C285.68705131 291.2632002 285.68705131 291.2632002 291.35266304 288.27684784 C294.3437888 284.85018789 294.78929576 282.50903873 294.79610062 278.11879158 C294.79994176 277.18931871 294.80378291 276.25984583 294.80774045 275.30220711 C294.80644073 273.76794243 294.80644073 273.76794243 294.80511475 272.2026825 C294.80808587 271.11742212 294.81105699 270.03216175 294.81411815 268.9140147 C294.822825 265.25899872 294.82431507 261.60401541 294.82580566 257.94898987 C294.83043238 255.3360029 294.83545684 252.72301662 294.84085083 250.11003113 C294.85443614 242.99853132 294.86045903 235.88703715 294.86486149 228.77552652 C294.86762328 224.33629518 294.87186048 219.89706602 294.87636566 215.45783615 C294.88855802 203.17008412 294.89885777 190.88233383 294.90224075 178.59457588 C294.90246032 177.80805446 294.90267989 177.02153304 294.9029061 176.21117764 C294.90312438 175.42276307 294.90334266 174.6343485 294.90356755 173.82204258 C294.90401102 172.22438439 294.90445758 170.62672619 294.90490723 169.02906799 C294.90512866 168.23657252 294.90535009 167.44407705 294.90557823 166.62756656 C294.90952748 153.78212085 294.9269855 140.93673182 294.95026675 128.09130801 C294.97396903 114.90733195 294.98644207 101.72338435 294.98760867 88.53938663 C294.98852601 81.13531271 294.99429304 73.73131266 295.01242828 66.32725906 C295.02942038 59.36534051 295.03109032 52.40356451 295.02228928 45.44163132 C295.02151609 42.88298416 295.02589847 40.32432961 295.03574753 37.76570129 C295.04838267 34.27951913 295.04263591 30.79384101 295.03216553 27.30766296 C295.04022193 26.28928128 295.04827834 25.2708996 295.05657887 24.22165787 C295.03242591 17.41335606 295.03242591 17.41335606 291.66467285 11.62818909 C288.58487367 8.86724033 286.64825704 8.25225558 282.53526497 8.24507904 C281.49294909 8.2360224 280.4506332 8.22696576 279.37673199 8.21763468 C277.66109423 8.22562657 277.66109423 8.22562657 275.91079712 8.23377991 C274.69471421 8.2276888 273.4786313 8.2215977 272.2256974 8.21532202 C268.84848496 8.20153516 265.47175791 8.20124605 262.09455371 8.20669699 C258.45300084 8.2093637 254.81151057 8.19484213 251.16998291 8.18260193 C244.03501844 8.1615302 236.9001352 8.15700808 229.76514329 8.15878981 C223.96627113 8.16009661 218.16742436 8.1562975 212.36855698 8.14886475 C210.6992114 8.14676558 209.02986582 8.14466798 207.36052024 8.14257193 C206.52967819 8.1415284 205.69883614 8.14048487 204.84281705 8.13940972 C189.12325705 8.12050018 173.40374369 8.12155968 157.68417703 8.12837905 C143.30039011 8.13395455 128.9167813 8.11313007 114.53303601 8.08001858 C99.76812301 8.04629314 85.00329536 8.03111184 70.23834312 8.03573561 C61.94722197 8.03798153 53.65626543 8.03271938 45.36517715 8.00784302 C38.30638014 7.98684459 31.24783797 7.98322319 24.18903054 8.00214261 C20.58716479 8.01130982 16.98577438 8.01241423 13.38394547 7.99178696 C9.47990506 7.96967617 5.57657787 7.98627121 1.67251587 8.00672913 C0.5332188 7.99421128 -0.60607826 7.98169343 -1.77989948 7.96879625 C-8.42123531 8.04364195 -11.83332332 8.59235553 -16.33532715 13.62818909 Z " fill="#353535" transform="translate(117.3353271484375,106.37181091308594)"/>
<path d="M0 0 C0.9502323 -0.00521549 1.90046459 -0.01043099 2.87949181 -0.01580453 C4.45621383 -0.00911236 4.45621383 -0.00911236 6.06478882 -0.002285 C7.17581278 -0.00540498 8.28683674 -0.00852497 9.43152809 -0.01173949 C13.17961451 -0.01975992 16.92754084 -0.0133801 20.67562866 -0.00710678 C23.35245239 -0.00981485 26.02926483 -0.01330199 28.70608521 -0.0177269 C35.23705472 -0.02663846 41.76797837 -0.02469107 48.29894972 -0.01890162 C53.60495348 -0.01439204 58.91094434 -0.01376916 64.21694946 -0.01594925 C64.97099929 -0.01625572 65.72504913 -0.01656218 66.50194895 -0.01687793 C68.03359843 -0.01751736 69.5652479 -0.01816579 71.09689736 -0.01882312 C85.4724394 -0.02453157 99.84795596 -0.01796045 114.22349381 -0.00722238 C126.56887965 0.0017136 138.91422788 0.0001617 151.25961304 -0.00905991 C165.58233701 -0.01975345 179.90503863 -0.0239822 194.22776604 -0.01783538 C195.75390497 -0.01719825 197.28004392 -0.01656951 198.80618286 -0.01594925 C199.93263275 -0.01548642 199.93263275 -0.01548642 201.0818392 -0.01501425 C206.38388009 -0.01328455 211.68590685 -0.0162083 216.98794556 -0.02090836 C223.44590612 -0.02650704 229.90381805 -0.02502218 236.36177301 -0.01434687 C239.65920064 -0.00907642 242.9565299 -0.00812613 246.25395966 -0.01364517 C249.82216996 -0.01906887 253.3901482 -0.01230522 256.95834351 -0.002285 C258.00949152 -0.00674645 259.06063953 -0.01120789 260.14364052 -0.01580453 C261.56898896 -0.00798129 261.56898896 -0.00798129 263.02313232 0 C263.84756018 0.0003247 264.67198803 0.00064941 265.52139854 0.00098395 C267.51156616 0.25168228 267.51156616 0.25168228 269.51156616 2.25168228 C269.71145006 4.96541084 269.78519164 7.57743931 269.77226257 10.29256058 C269.77608812 11.13336452 269.77991367 11.97416845 269.78385514 12.8404513 C269.79422153 15.67412404 269.79018613 18.50759553 269.78622437 21.34128189 C269.79056883 23.3662421 269.79575108 25.39120067 269.80171204 27.41615677 C269.81514187 32.92847908 269.81567629 38.440733 269.81314874 43.95306849 C269.81208172 48.54826367 269.81695548 53.14344484 269.82175416 57.73863703 C269.83286313 68.57592245 269.83327895 79.41317321 269.82723999 90.25046158 C269.82119785 101.4453704 269.83351417 112.64015361 269.85481006 123.83504099 C269.87240013 133.4333584 269.87843153 143.03163575 269.87517232 152.6299687 C269.87335516 158.36843468 269.87603852 164.10681108 269.88988686 169.84526253 C269.90241844 175.24032444 269.90056554 180.63518992 269.88747597 186.03024864 C269.88510041 188.01404892 269.88787964 189.99786282 269.89609909 191.98164749 C269.90648582 194.68260306 269.89853138 197.38288959 269.88578796 200.08382034 C269.89316225 200.87525293 269.90053653 201.66668551 269.90813428 202.4821009 C269.85528355 207.77938414 269.85528355 207.77938414 268.27423638 209.95188302 C266.01483872 211.61797086 264.72763226 211.62754122 261.93411255 211.6292057 C260.98947269 211.63702895 260.04483284 211.64485219 259.07156754 211.6529125 C258.03179638 211.64622033 256.99202522 211.63952817 255.92074585 211.63263321 C254.81774014 211.63731318 253.71473442 211.64199315 252.57830429 211.64681494 C248.86322946 211.65883024 245.14851907 211.64928201 241.43344116 211.63986588 C238.77779047 211.64392868 236.12216532 211.6491599 233.46652222 211.65579605 C226.9908152 211.66915529 220.51521233 211.66624594 214.03950119 211.65755813 C208.77786146 211.65079058 203.51625098 211.64986083 198.25460815 211.65312958 C197.50653326 211.65358928 196.75845836 211.65404898 195.98771453 211.65452261 C194.46814632 211.65548175 192.94857811 211.65645439 191.42900991 211.65744038 C177.1707363 211.66600069 162.91252048 211.65615011 148.65425634 211.64003928 C136.41265357 211.62663551 124.17113614 211.62896342 111.92953491 211.64279556 C97.72324848 211.65884008 83.51701276 211.66517666 69.31071854 211.65595877 C67.79665376 211.6550031 66.28258897 211.65405998 64.76852417 211.65312958 C63.65102016 211.65243534 63.65102016 211.65243534 62.51094031 211.65172707 C57.25393443 211.64913379 51.99696063 211.65351545 46.73995972 211.66056824 C40.33582782 211.66897093 33.93180628 211.66672916 27.52768707 211.65072601 C24.25844173 211.64282654 20.9894192 211.64138731 17.72016907 211.64967346 C14.180722 211.65781992 10.64179972 211.64765068 7.10238647 211.63263321 C5.54272974 211.64267146 5.54272974 211.64267146 3.95156479 211.6529125 C3.00692493 211.64508926 2.06228508 211.63726601 1.08901978 211.6292057 C0.27158924 211.62871865 -0.54584129 211.62823159 -1.38804245 211.62772977 C-4.03500897 211.15382518 -4.91699192 210.4109827 -6.48843384 208.25168228 C-6.78111546 205.45496179 -6.88872128 202.88127069 -6.86265564 200.08382034 C-6.86663005 199.24145641 -6.87060445 198.39909248 -6.87469929 197.53120238 C-6.88435208 194.69819451 -6.87248629 191.8656823 -6.86074829 189.03268814 C-6.86317525 187.00595793 -6.86689364 184.97922891 -6.87181091 182.9525032 C-6.881236 177.44026204 -6.87178118 171.92819793 -6.85847878 166.41597056 C-6.84718589 160.65666337 -6.85127008 154.89736516 -6.85322571 149.13805008 C-6.8541093 139.46618115 -6.84301411 129.79438223 -6.82461548 120.12253189 C-6.80344091 108.92703443 -6.79993886 97.73163951 -6.80617744 86.53612608 C-6.81186405 75.78210843 -6.80623412 65.02812703 -6.79500389 54.27411461 C-6.79034919 49.69000519 -6.7894878 45.10591787 -6.79158974 40.52180672 C-6.79346779 35.12839979 -6.78540608 29.73509785 -6.76952934 24.34171486 C-6.76527229 22.35749877 -6.76444541 20.37327206 -6.76721954 18.38905334 C-6.77042155 15.69010565 -6.76140996 12.99147559 -6.74913025 10.29256058 C-6.75290957 9.49889727 -6.7566889 8.70523396 -6.76058275 7.88752025 C-6.71312875 2.03154459 -6.01805163 0.00237024 0 0 Z M1.51156616 8.25168228 C1.51156616 72.60168228 1.51156616 136.95168228 1.51156616 203.25168228 C87.31156616 203.25168228 173.11156616 203.25168228 261.51156616 203.25168228 C261.51156616 138.90168228 261.51156616 74.55168228 261.51156616 8.25168228 C175.71156616 8.25168228 89.91156616 8.25168228 1.51156616 8.25168228 Z " fill="#343434" transform="translate(124.48843383789063,167.74831771850586)"/>
<path d="M0 0 C1.45136348 1.19164581 2.88971216 2.39937752 4.3125 3.625 C4.91835938 4.13546875 5.52421875 4.6459375 6.1484375 5.171875 C17.30559077 15.369816 23.54228189 30.23587317 24.55078125 45.1484375 C24.90539453 63.55100009 20.02461691 78.76974524 7.921875 92.984375 C-3.25329134 104.29337567 -18.81895814 111.72136249 -34.79248047 112.00415039 C-35.62408691 112.00278076 -36.45569336 112.00141113 -37.3125 112 C-38.61985107 112.00084595 -38.61985107 112.00084595 -39.95361328 112.00170898 C-46.67878287 111.88857182 -52.36105372 110.78480161 -58.7421875 108.59765625 C-61.85390725 107.57004588 -64.40079288 106.73354383 -67.6875 106.625 C-70.62380888 108.3381426 -70.62380888 108.3381426 -73.125 111 C-74.01058594 111.83273437 -74.89617187 112.66546875 -75.80859375 113.5234375 C-77.92867055 117.0231069 -77.7675554 117.15448808 -76.88183594 120.82373047 C-76.50357794 123.67962258 -76.40826185 125.1146312 -77.80311584 127.66403198 C-79.58435549 129.76125021 -81.46040961 131.65337464 -83.45703125 133.546875 C-84.16719894 134.25475159 -84.87736664 134.96262817 -85.60905457 135.69195557 C-87.11491156 137.18273598 -88.63287534 138.66137284 -90.16186523 140.12841797 C-92.48023296 142.35600697 -94.75653074 144.6205322 -97.02929688 146.89453125 C-98.50288222 148.34351525 -99.9787262 149.79020653 -101.45703125 151.234375 C-102.46706963 152.2360672 -102.46706963 152.2360672 -103.49751282 153.25799561 C-110.07395309 159.51809522 -117.46134968 164.37191944 -126.8125 164.1875 C-135.10371079 163.83716715 -139.81779897 161.8637098 -145.5 155.875 C-150.63915906 149.50385076 -151.98056745 143.81993451 -152.28125 135.7265625 C-150.59579704 126.92228849 -145.21122375 120.36564511 -139.04296875 114.17578125 C-138.31435135 113.43289352 -137.58573395 112.6900058 -136.83503723 111.92460632 C-135.30429674 110.37309067 -133.76697661 108.82804104 -132.22338867 107.28930664 C-129.86657118 104.92905892 -127.54966804 102.53379983 -125.23242188 100.13476562 C-123.7340547 98.6253336 -122.23347812 97.11809089 -120.73046875 95.61328125 C-120.04373581 94.89578201 -119.35700287 94.17828278 -118.64945984 93.43904114 C-113.78484574 88.68768715 -113.78484574 88.68768715 -110.51992798 88.50117493 C-108.56342583 88.80469008 -106.62341617 89.20996903 -104.6875 89.625 C-102.19528148 87.81997409 -100.63230871 86.45279127 -98.6875 84.1875 C-98.19894531 83.65833984 -97.71039063 83.12917969 -97.20703125 82.58398438 C-96.0122844 81.28381869 -94.84677642 79.95688927 -93.6875 78.625 C-94.03683594 77.55121094 -94.38617188 76.47742188 -94.74609375 75.37109375 C-95.20602249 73.93498974 -95.66564142 72.49878648 -96.125 71.0625 C-96.35509766 70.35802734 -96.58519531 69.65355469 -96.82226562 68.92773438 C-102.12431398 52.25317651 -100.38308605 35.56556757 -92.625 19.9375 C-83.22168955 3.63709191 -68.56831697 -6.72393034 -50.4375 -11.6875 C-32.64615507 -14.99527713 -14.47198057 -10.87222742 0 0 Z M-78.6953125 13.7890625 C-89.32970295 26.81734171 -92.87132395 41.08434874 -91.6875 57.625 C-89.57501842 72.51799515 -81.4374831 84.59939882 -69.8125 93.9375 C-56.09315437 103.60402496 -40.15614736 105.7606555 -23.87890625 102.97265625 C-9.93556604 99.07253828 2.38725414 89.88209625 9.6875 77.3125 C16.55156858 63.35036051 18.93809385 48.76997304 14.6875 33.625 C9.50332558 19.22852956 -0.04072366 7.68303013 -13.6875 0.625 C-36.52414613 -9.348928 -61.65101991 -4.58163419 -78.6953125 13.7890625 Z " fill="#353534" transform="translate(319.6875,197.375)"/>
<path d="M0 0 C0.928125 0.7425 1.85625 1.485 2.8125 2.25 C3.38742187 2.70890625 3.96234375 3.1678125 4.5546875 3.640625 C10.66177006 9.04001988 14.06968295 16.05735513 15.22265625 24.1171875 C15.53703133 33.76713567 13.05282559 41.79660557 6.8359375 49.20703125 C-0.21571369 56.32674857 -7.60808892 59.2554627 -17.5625 59.625 C-23.65388146 59.51335956 -28.00186042 58.40476172 -33.1875 55.25 C-34.23550781 54.63125 -34.23550781 54.63125 -35.3046875 54 C-42.03971229 49.52692693 -46.33414473 42.94031938 -48.5625 35.1875 C-50.14095154 25.2432553 -49.1890302 16.97927848 -43.26953125 8.50390625 C-31.85017109 -5.09826966 -15.6942889 -8.61647234 0 0 Z " fill="#FC5758" transform="translate(299.1875,219.75)"/>
<path d="M0 0 C1.43745323 -0.00810448 1.43745323 -0.00810448 2.90394592 -0.01637268 C6.06713886 -0.02886536 9.22942262 -0.0123649 12.39257812 0.00561523 C14.59305875 0.00546026 16.79353966 0.00397153 18.99401855 0.00120544 C23.60404539 -0.0001788 28.2137612 0.01238404 32.82373047 0.03515625 C38.73206005 0.06354065 44.63987284 0.06080374 50.54824066 0.04806614 C55.09157727 0.0411102 59.63479448 0.04889734 64.17811584 0.06132317 C66.3566085 0.06583847 68.53511397 0.06617378 70.71360779 0.06225777 C73.75855773 0.05934645 76.80279622 0.07584931 79.84765625 0.09765625 C80.74754776 0.0931546 81.64743927 0.08865295 82.57460022 0.08401489 C87.35221404 0.14084619 90.54205386 0.40449175 94.42382812 3.50170898 C97.61042522 7.23771937 97.88997886 10.61593747 97.70898438 15.35327148 C97.1707562 19.40841526 95.54907967 21.60587526 92.40707397 24.10728455 C88.2018572 26.07288086 84.46928189 25.94445871 79.87939453 25.9375 C78.44676018 25.95261375 78.44676018 25.95261375 76.98518372 25.96803284 C73.83179988 25.99650054 70.67889492 26.00238879 67.52539062 26.00561523 C65.32969975 26.01525697 63.1340108 26.0253495 60.93832397 26.03587341 C56.33676689 26.0538317 51.73537872 26.05939472 47.13378906 26.05761719 C41.24330481 26.05731232 35.35390548 26.09827262 29.46367836 26.14993382 C24.92883347 26.18332331 20.39425012 26.18937397 15.85929489 26.18778801 C13.68799473 26.1913238 11.5166875 26.20456931 9.34550858 26.22778511 C6.30525411 26.257251 3.2673447 26.24853123 0.22705078 26.23046875 C-0.66565018 26.24732727 -1.55835114 26.26418579 -2.47810364 26.28155518 C-8.14960169 26.19612632 -11.14268581 24.97310779 -15.29191017 21.08155727 C-18.13907073 17.57909222 -17.87319777 13.8085845 -17.57617188 9.50170898 C-13.87963164 1.13585476 -8.37250564 -0.08994987 0 0 Z " fill="#333333" transform="translate(286.576171875,128.498291015625)"/>
<path d="M0 0 C3.65031725 1.53271547 5.93939751 3.72153877 8.6953125 6.53515625 C9.57574219 7.42654297 10.45617187 8.31792969 11.36328125 9.23632812 C12.27464844 10.16896484 13.18601563 11.10160156 14.125 12.0625 C15.93789615 13.90972167 17.75289358 15.75488421 19.5703125 17.59765625 C20.37227051 18.41758057 21.17422852 19.23750488 22.00048828 20.08227539 C23.85596361 22.0514634 23.85596361 22.0514634 26 23 C24.3702769 27.09857239 21.42736985 29.8786173 18.36328125 32.9375 C17.80561569 33.49945068 17.24795013 34.06140137 16.67338562 34.64038086 C15.49322388 35.82627569 14.31044579 37.0095718 13.12524414 38.19042969 C11.32741236 39.98511375 9.54328047 41.79266393 7.75976562 43.6015625 C6.60758309 44.75601956 5.45461282 45.90969108 4.30078125 47.0625 C3.77446609 47.5980249 3.24815094 48.1335498 2.70588684 48.68530273 C-2.57528122 53.90241678 -8.15671087 57.63115442 -15.73046875 58.16015625 C-21.22117245 57.77268835 -25.38357124 55.01077078 -28.9375 50.9375 C-31.50568568 47.27978101 -32.1834018 44.62574949 -32.3125 40.25 C-32.34988281 39.43015625 -32.38726562 38.6103125 -32.42578125 37.765625 C-31.34914026 30.77239729 -26.34595273 25.9257901 -21.484375 21.19140625 C-20.86854553 20.57982162 -20.25271606 19.968237 -19.6182251 19.33811951 C-17.66913926 17.40569107 -15.70983708 15.48401759 -13.75 13.5625 C-12.41857878 12.24614231 -11.08784249 10.92909148 -9.7578125 9.61132812 C-6.51307153 6.39948455 -3.25913167 3.19723737 0 0 Z " fill="#FA5858" transform="translate(208,296)"/>
<path d="M0 0 C11.23625433 6.50701672 17.45653947 14.72272752 20.88671875 27.37890625 C23.24146329 38.4798448 20.49296906 49.67896766 14.33984375 59.15234375 C7.20675041 68.3633382 -1.93910394 73.93942567 -13.45703125 75.47265625 C-24.52528686 76.57281419 -34.49058429 73.61217833 -43.49609375 67.09375 C-50.4891159 61.31266595 -55.51922408 53.39362711 -57.45703125 44.47265625 C-58.42029532 30.71174094 -57.46167883 20.08259857 -48.26953125 9.09765625 C-35.59566563 -4.04091777 -16.63015603 -8.2347945 0 0 Z M-43.70703125 15.66015625 C-48.57800377 21.68898289 -51.20149728 29.4800613 -50.7734375 37.2265625 C-49.49157983 46.32616941 -46.15935631 54.46612238 -39.0546875 60.51953125 C-30.43674556 66.79183787 -23.05842425 68.43975792 -12.45703125 67.47265625 C-2.96133633 65.41320034 3.99335174 60.56169711 9.41796875 52.53515625 C13.96913322 44.53613992 15.08728261 35.33505157 12.73828125 26.41796875 C9.35206957 17.24016743 3.76903304 10.16148625 -5.20703125 5.97265625 C-20.01074261 0.34775729 -32.99401903 4.49184101 -43.70703125 15.66015625 Z " fill="#353434" transform="translate(300.45703125,211.52734375)"/>
<path d="M0 0 C0.90270126 -0.00365067 1.80540253 -0.00730133 2.73545837 -0.01106262 C5.72421995 -0.01917939 8.71244127 -0.00554858 11.70117188 0.0090332 C13.77478027 0.00955167 15.84838916 0.00903448 17.92199707 0.00752258 C22.26984994 0.00761236 26.61751758 0.01805243 30.96533203 0.03613281 C36.54426094 0.05882007 42.12291907 0.05936461 47.70188141 0.05261517 C51.98433853 0.04927696 56.2667337 0.05590249 60.54917908 0.0657444 C62.60651831 0.06959925 64.66386443 0.07074344 66.72120667 0.06915855 C69.59421978 0.06878855 72.46688308 0.08139007 75.33984375 0.09765625 C76.19396347 0.09517883 77.04808319 0.09270142 77.92808533 0.09014893 C81.8509186 0.12567539 83.83238965 0.14729297 87.16992188 2.37231445 C87.82696636 7.51916293 87.82696636 7.51916293 85.88564205 10.03991127 C82.87873094 12.37503444 79.10390739 11.78683134 75.44750977 11.76049805 C74.55616837 11.765755 73.66482697 11.77101196 72.74647522 11.77642822 C69.79499881 11.78965032 66.84406019 11.78088155 63.89257812 11.77075195 C61.84378455 11.77277223 59.79499167 11.77568328 57.74620056 11.77944946 C53.4496273 11.78387596 49.153241 11.77743189 44.85668945 11.76342773 C39.34728877 11.74634653 33.83832684 11.75616834 28.3289423 11.77414513 C24.09704785 11.78498331 19.86525748 11.78153625 15.63335991 11.77376175 C13.60196315 11.77175928 11.57055697 11.77422063 9.53917122 11.78120041 C6.69976895 11.78881416 3.86107779 11.77721112 1.02172852 11.76049805 C-0.24003204 11.76960709 -0.24003204 11.76960709 -1.52728271 11.77890015 C-4.88619859 11.74224862 -7.37144995 11.62070515 -10.35597229 10.00430298 C-11.83007812 8.37231445 -11.83007812 8.37231445 -12.26757812 5.87231445 C-11.10030537 -0.79781557 -5.6234315 -0.05032554 0 0 Z " fill="#EC595A" transform="translate(288.830078125,135.627685546875)"/>
<path d="M0 0 C3.15930721 2.47621376 5.51421441 5.21592881 7.3125 8.8125 C7.44328047 13.48323094 6.97888191 17.53785485 4 21.25 C0.41836667 24.66504573 -1.13545876 25.66879248 -6.0625 26.125 C-11.46799085 25.65900941 -14.4214478 24.21182085 -18.0625 20.1875 C-20.14244473 15.86761479 -20.51480415 12.52306853 -19.6875 7.8125 C-15.87117983 -0.11370343 -8.35467616 -3.69160109 0 0 Z " fill="#353434" transform="translate(147.6875,129.1875)"/>
<path d="M0 0 C3.95018626 2.08689086 6.64836078 4.21311966 9 8 C9.78623141 12.33737663 10.013156 16.96162661 8.015625 20.98046875 C5.80302318 23.74622102 3.40606975 25.99821478 0 27 C-5.22343681 27.48365156 -8.61480585 26.92346277 -13 24 C-16.08847593 20.58642134 -17.26431338 17.96294163 -17.4375 13.4375 C-17.23415378 9.52800497 -16.60744356 7.04201748 -14 4 C-9.52342494 0.14806332 -5.74716204 -1.14713813 0 0 Z " fill="#343333" transform="translate(182,128)"/>
<path d="M0 0 C3.35731719 2.88885433 5.33169083 4.94043885 6.00390625 9.421875 C6.21613269 13.50209937 5.85951795 15.95523195 4.0625 19.6875 C0.46924634 23.65899089 -2.51261818 25.08751477 -7.8125 25.75 C-12.71413731 25.13729534 -15.6560309 23.13461601 -18.953125 19.5078125 C-21.47425649 15.43633003 -21.03296836 10.92216333 -20.3125 6.3125 C-18.70237081 3.07307341 -16.37502053 1.11855006 -13.5 -1.0625 C-8.37965237 -2.52545646 -4.65895078 -2.37342776 0 0 Z " fill="#343333" transform="translate(222.3125,129.6875)"/>
<path d="M0 0 C3.38055068 1.12685023 4.1079382 2.05384625 6.3125 4.75 C9.29895915 8.28291763 12.35818708 11.15760943 16 14 C14.53374144 17.34820898 12.66341553 19.69266359 10.125 22.3125 C9.44695312 23.03050781 8.76890625 23.74851562 8.0703125 24.48828125 C6 26 6 26 4.0612793 25.75585938 C0.58430816 24.48087387 -1.74882054 21.76334402 -4.3125 19.1875 C-4.87517578 18.65318359 -5.43785156 18.11886719 -6.01757812 17.56835938 C-7.61328125 15.98046875 -7.61328125 15.98046875 -10 13 C-9.55323992 8.89108652 -7.35893741 7.04799639 -4.4375 4.25 C-3.61121094 3.45078125 -2.78492188 2.6515625 -1.93359375 1.828125 C-1.29550781 1.22484375 -0.65742188 0.6215625 0 0 Z " fill="#F35959" transform="translate(230,283)"/>
<path d="M0 0 C1.9375 1.6875 1.9375 1.6875 3 4 C2.75925978 7.37036311 2.41201979 8.58798021 0 11 C-3.13704316 11.333728 -5.16554166 11.52849028 -7.875 9.8125 C-9.40659584 7.34492892 -9.42822025 5.85480169 -9 3 C-6.74280427 -0.63659311 -4.02330328 -0.58673173 0 0 Z " fill="#F05C5C" transform="translate(218,136)"/>
<path d="M0 0 C3.0625 0.3125 3.0625 0.3125 5 1.4375 C6.0625 3.3125 6.0625 3.3125 5.875 6.375 C5.0625 9.3125 5.0625 9.3125 3.0625 11.3125 C0.125 11.6875 0.125 11.6875 -2.9375 11.3125 C-4.875 9.625 -4.875 9.625 -5.9375 7.3125 C-5.61764525 2.8345335 -4.76027546 0.50641228 0 0 Z " fill="#F15C5C" transform="translate(177.9375,135.6875)"/>
<path d="M0 0 C3.0625 0.3125 3.0625 0.3125 4.9375 1.5 C6.46909584 3.96757108 6.49072025 5.45769831 6.0625 8.3125 C4.9375 10.125 4.9375 10.125 3.0625 11.3125 C0 11.625 0 11.625 -2.9375 11.3125 C-4.9375 9.3125 -4.9375 9.3125 -5.1875 5.8125 C-4.87458101 1.43163414 -4.40975115 0.46912246 0 0 Z " fill="#F35B5B" transform="translate(140.9375,135.6875)"/>
</svg>
