<?xml version="1.0" encoding="UTF-8"?>
<svg xmlns="http://www.w3.org/2000/svg" xmlns:xlink="http://www.w3.org/1999/xlink" width="32px" height="32px" viewBox="0 0 32 32" version="1.1">
<g id="surface1">
<path style=" stroke:none;fill-rule:nonzero;fill:rgb(75.686276%,90.980393%,92.54902%);fill-opacity:1;" d="M 15.976562 -0.0195312 L 16.167969 -0.0195312 C 17.082031 -0.015625 17.976562 0 18.875 0.1875 L 19.058594 0.226562 C 22.082031 0.859375 24.832031 2.226562 27.0625 4.375 L 27.1875 4.496094 C 27.78125 5.066406 28.328125 5.648438 28.8125 6.3125 L 28.972656 6.527344 C 29.351562 7.039062 29.6875 7.574219 30 8.125 L 30.070312 8.246094 C 31.417969 10.605469 32.03125 13.277344 32.019531 15.976562 L 32.019531 16.167969 C 32.015625 17.082031 32 17.976562 31.8125 18.875 L 31.773438 19.058594 C 31.140625 22.082031 29.773438 24.832031 27.625 27.0625 L 27.503906 27.1875 C 26.933594 27.78125 26.351562 28.328125 25.6875 28.8125 L 25.472656 28.972656 C 24.960938 29.351562 24.429688 29.6875 23.875 30 L 23.742188 30.078125 C 22.296875 30.890625 20.722656 31.4375 19.097656 31.769531 L 18.960938 31.796875 C 18.042969 31.972656 17.136719 32.023438 16.203125 32.019531 C 16.019531 32.019531 15.835938 32.019531 15.652344 32.023438 C 14.816406 32.023438 14.011719 31.949219 13.1875 31.8125 L 12.972656 31.777344 C 10.269531 31.292969 7.703125 30.042969 5.625 28.25 L 5.484375 28.128906 C 4.640625 27.390625 3.847656 26.59375 3.1875 25.6875 L 3.027344 25.472656 C 2.648438 24.960938 2.3125 24.429688 2 23.875 L 1.921875 23.742188 C 1.109375 22.296875 0.5625 20.722656 0.230469 19.097656 L 0.203125 18.960938 C 0.015625 17.984375 -0.0234375 17.015625 -0.0195312 16.023438 L -0.0195312 15.832031 C -0.015625 14.917969 0 14.023438 0.1875 13.125 L 0.226562 12.941406 C 0.859375 9.917969 2.226562 7.167969 4.375 4.9375 L 4.496094 4.8125 C 5.066406 4.21875 5.648438 3.671875 6.3125 3.1875 L 6.527344 3.027344 C 7.039062 2.648438 7.570312 2.3125 8.125 2 L 8.257812 1.921875 C 9.703125 1.109375 11.277344 0.5625 12.902344 0.230469 L 13.039062 0.203125 C 14.015625 0.015625 14.984375 -0.0234375 15.976562 -0.0195312 "/>
<path style=" stroke:none;fill-rule:nonzero;fill:rgb(99.215686%,97.254902%,47.843137%);fill-opacity:1;" d="M 7.332031 6.648438 L 7.566406 6.648438 C 7.777344 6.644531 7.992188 6.648438 8.203125 6.648438 C 8.433594 6.648438 8.664062 6.648438 8.890625 6.648438 C 9.339844 6.644531 9.789062 6.644531 10.238281 6.648438 C 10.65625 6.648438 11.074219 6.648438 11.492188 6.648438 L 11.808594 6.648438 C 12.742188 6.648438 13.675781 6.648438 14.609375 6.648438 C 15.515625 6.652344 16.421875 6.652344 17.328125 6.652344 C 18.417969 6.648438 19.511719 6.648438 20.601562 6.652344 L 20.757812 6.652344 C 21.125 6.652344 21.488281 6.652344 21.851562 6.652344 C 22.296875 6.652344 22.742188 6.652344 23.1875 6.652344 C 23.414062 6.652344 23.640625 6.652344 23.867188 6.652344 C 24.113281 6.652344 24.359375 6.652344 24.605469 6.65625 L 24.820312 6.652344 C 25.21875 6.65625 25.558594 6.679688 25.875 6.9375 C 26.246094 7.324219 26.304688 7.6875 26.296875 8.207031 L 26.296875 8.417969 C 26.300781 8.648438 26.296875 8.878906 26.296875 9.109375 C 26.296875 9.277344 26.296875 9.441406 26.296875 9.609375 C 26.300781 10.011719 26.296875 10.417969 26.296875 10.820312 C 26.296875 11.292969 26.296875 11.761719 26.296875 12.230469 C 26.296875 13.070312 26.292969 13.910156 26.292969 14.75 C 26.289062 15.566406 26.289062 16.378906 26.289062 17.195312 C 26.289062 18.175781 26.289062 19.160156 26.289062 20.140625 L 26.289062 20.28125 C 26.289062 20.609375 26.289062 20.9375 26.289062 21.265625 C 26.289062 21.664062 26.289062 22.0625 26.285156 22.464844 C 26.285156 22.667969 26.285156 22.871094 26.285156 23.074219 C 26.285156 23.296875 26.285156 23.515625 26.28125 23.738281 L 26.285156 23.933594 C 26.277344 24.371094 26.207031 24.726562 25.886719 25.050781 L 25.667969 25.191406 C 25.460938 25.304688 25.289062 25.320312 25.058594 25.320312 L 24.859375 25.324219 L 24.410156 25.324219 C 24.195312 25.324219 23.984375 25.324219 23.769531 25.324219 C 23.589844 25.324219 23.40625 25.328125 23.222656 25.328125 C 22.621094 25.328125 22.019531 25.332031 21.417969 25.332031 L 20.949219 25.332031 C 19.75 25.335938 18.550781 25.335938 17.355469 25.335938 L 17.183594 25.339844 C 16.277344 25.339844 15.371094 25.339844 14.464844 25.34375 C 13.53125 25.347656 12.601562 25.351562 11.667969 25.351562 C 11.144531 25.351562 10.625 25.351562 10.101562 25.355469 C 9.65625 25.355469 9.210938 25.355469 8.765625 25.355469 C 8.535156 25.355469 8.308594 25.355469 8.082031 25.359375 C 7.835938 25.359375 7.589844 25.359375 7.34375 25.359375 L 7.125 25.359375 C 6.660156 25.355469 6.339844 25.269531 6 24.9375 C 5.710938 24.578125 5.714844 24.183594 5.71875 23.738281 L 5.714844 23.527344 C 5.714844 23.296875 5.714844 23.066406 5.714844 22.832031 C 5.714844 22.667969 5.714844 22.5 5.714844 22.335938 C 5.714844 21.929688 5.714844 21.527344 5.714844 21.125 C 5.714844 20.796875 5.714844 20.464844 5.714844 20.136719 L 5.714844 19.710938 C 5.710938 18.820312 5.714844 17.929688 5.714844 17.039062 C 5.714844 16.222656 5.714844 15.410156 5.710938 14.59375 C 5.710938 13.664062 5.710938 12.730469 5.710938 11.800781 L 5.710938 11.65625 C 5.710938 11.332031 5.710938 11.003906 5.710938 10.675781 C 5.707031 10.273438 5.707031 9.875 5.710938 9.476562 C 5.710938 9.269531 5.710938 9.066406 5.710938 8.863281 C 5.707031 8.640625 5.710938 8.421875 5.710938 8.199219 L 5.707031 8.003906 C 5.714844 7.59375 5.78125 7.308594 6.0625 7 C 6.441406 6.644531 6.835938 6.644531 7.332031 6.648438 "/>
<path style=" stroke:none;fill-rule:nonzero;fill:rgb(98.039216%,34.901962%,34.901962%);fill-opacity:1;" d="M 7.332031 6.648438 L 7.566406 6.648438 C 7.777344 6.644531 7.992188 6.648438 8.203125 6.648438 C 8.433594 6.648438 8.664062 6.648438 8.890625 6.648438 C 9.339844 6.644531 9.789062 6.644531 10.238281 6.648438 C 10.65625 6.648438 11.074219 6.648438 11.492188 6.648438 L 11.808594 6.648438 C 12.742188 6.648438 13.675781 6.648438 14.609375 6.648438 C 15.515625 6.652344 16.421875 6.652344 17.328125 6.652344 C 18.417969 6.648438 19.511719 6.648438 20.601562 6.652344 L 20.757812 6.652344 C 21.125 6.652344 21.488281 6.652344 21.851562 6.652344 C 22.296875 6.652344 22.742188 6.652344 23.1875 6.652344 C 23.414062 6.652344 23.640625 6.652344 23.867188 6.652344 C 24.113281 6.652344 24.359375 6.652344 24.605469 6.65625 L 24.820312 6.652344 C 25.21875 6.65625 25.558594 6.679688 25.875 6.9375 C 26.246094 7.324219 26.304688 7.6875 26.296875 8.207031 L 26.296875 8.417969 C 26.300781 8.648438 26.296875 8.878906 26.296875 9.109375 C 26.296875 9.277344 26.296875 9.441406 26.296875 9.609375 C 26.300781 10.011719 26.296875 10.417969 26.296875 10.820312 C 26.296875 11.292969 26.296875 11.761719 26.296875 12.230469 C 26.296875 13.070312 26.292969 13.910156 26.292969 14.75 C 26.289062 15.566406 26.289062 16.378906 26.289062 17.195312 C 26.289062 18.175781 26.289062 19.160156 26.289062 20.140625 L 26.289062 20.28125 C 26.289062 20.609375 26.289062 20.9375 26.289062 21.265625 C 26.289062 21.664062 26.289062 22.0625 26.285156 22.464844 C 26.285156 22.667969 26.285156 22.871094 26.285156 23.074219 C 26.285156 23.296875 26.285156 23.515625 26.28125 23.738281 L 26.285156 23.933594 C 26.277344 24.371094 26.207031 24.726562 25.886719 25.050781 L 25.667969 25.191406 C 25.460938 25.304688 25.289062 25.320312 25.058594 25.320312 L 24.859375 25.324219 L 24.410156 25.324219 C 24.195312 25.324219 23.984375 25.324219 23.769531 25.324219 C 23.589844 25.324219 23.40625 25.328125 23.222656 25.328125 C 22.621094 25.328125 22.019531 25.332031 21.417969 25.332031 L 20.949219 25.332031 C 19.75 25.335938 18.550781 25.335938 17.355469 25.335938 L 17.183594 25.339844 C 16.277344 25.339844 15.371094 25.339844 14.464844 25.34375 C 13.53125 25.347656 12.601562 25.351562 11.667969 25.351562 C 11.144531 25.351562 10.625 25.351562 10.101562 25.355469 C 9.65625 25.355469 9.210938 25.355469 8.765625 25.355469 C 8.535156 25.355469 8.308594 25.355469 8.082031 25.359375 C 7.835938 25.359375 7.589844 25.359375 7.34375 25.359375 L 7.125 25.359375 C 6.660156 25.355469 6.339844 25.269531 6 24.9375 C 5.710938 24.578125 5.714844 24.183594 5.71875 23.738281 L 5.714844 23.527344 C 5.714844 23.296875 5.714844 23.066406 5.714844 22.832031 C 5.714844 22.667969 5.714844 22.5 5.714844 22.335938 C 5.714844 21.929688 5.714844 21.527344 5.714844 21.125 C 5.714844 20.796875 5.714844 20.464844 5.714844 20.136719 L 5.714844 19.710938 C 5.710938 18.820312 5.714844 17.929688 5.714844 17.039062 C 5.714844 16.222656 5.714844 15.410156 5.710938 14.59375 C 5.710938 13.664062 5.710938 12.730469 5.710938 11.800781 L 5.710938 11.65625 C 5.710938 11.332031 5.710938 11.003906 5.710938 10.675781 C 5.707031 10.273438 5.707031 9.875 5.710938 9.476562 C 5.710938 9.269531 5.710938 9.066406 5.710938 8.863281 C 5.707031 8.640625 5.710938 8.421875 5.710938 8.199219 L 5.707031 8.003906 C 5.714844 7.59375 5.78125 7.308594 6.0625 7 C 6.441406 6.644531 6.835938 6.644531 7.332031 6.648438 M 7.875 11 L 7.875 23.1875 L 24.125 23.1875 L 24.125 11 Z M 7.875 11 "/>
<path style=" stroke:none;fill-rule:nonzero;fill:rgb(97.647059%,34.901962%,34.901962%);fill-opacity:1;" d="M 19.980469 12.335938 C 20.070312 12.410156 20.160156 12.484375 20.25 12.5625 L 20.363281 12.660156 C 21.0625 13.296875 21.453125 14.226562 21.515625 15.15625 C 21.535156 16.308594 21.230469 17.257812 20.476562 18.148438 C 19.777344 18.855469 18.804688 19.320312 17.804688 19.335938 L 17.484375 19.335938 C 17.0625 19.328125 16.707031 19.261719 16.308594 19.125 C 16.113281 19.058594 15.957031 19.007812 15.75 19 C 15.566406 19.105469 15.566406 19.105469 15.410156 19.273438 L 15.242188 19.429688 C 15.109375 19.648438 15.121094 19.65625 15.175781 19.886719 C 15.199219 20.066406 15.203125 20.15625 15.117188 20.316406 C 15.007812 20.445312 14.890625 20.5625 14.765625 20.683594 L 14.628906 20.816406 C 14.535156 20.910156 14.441406 21.003906 14.34375 21.09375 C 14.199219 21.234375 14.058594 21.375 13.917969 21.515625 C 13.824219 21.605469 13.730469 21.699219 13.640625 21.789062 L 13.511719 21.914062 C 13.101562 22.304688 12.640625 22.609375 12.054688 22.597656 C 11.535156 22.574219 11.242188 22.453125 10.886719 22.078125 C 10.566406 21.679688 10.480469 21.324219 10.460938 20.820312 C 10.566406 20.269531 10.90625 19.859375 11.289062 19.472656 L 11.429688 19.332031 C 11.523438 19.234375 11.621094 19.136719 11.714844 19.042969 C 11.863281 18.894531 12.007812 18.746094 12.152344 18.59375 C 12.246094 18.5 12.339844 18.40625 12.433594 18.3125 L 12.566406 18.175781 C 12.867188 17.878906 12.867188 17.878906 13.074219 17.867188 C 13.195312 17.886719 13.316406 17.910156 13.4375 17.9375 C 13.59375 17.824219 13.691406 17.738281 13.8125 17.597656 L 13.90625 17.496094 C 13.980469 17.417969 14.050781 17.332031 14.125 17.25 L 14.058594 17.046875 L 13.972656 16.777344 L 13.929688 16.644531 C 13.597656 15.601562 13.707031 14.558594 14.191406 13.582031 C 14.777344 12.5625 15.695312 11.914062 16.828125 11.605469 C 17.941406 11.398438 19.074219 11.65625 19.980469 12.335938 "/>
<path style=" stroke:none;fill-rule:nonzero;fill:rgb(20.784314%,20.784314%,20.784314%);fill-opacity:1;" d="M 7.332031 6.648438 L 7.566406 6.648438 C 7.777344 6.644531 7.992188 6.648438 8.203125 6.648438 C 8.433594 6.648438 8.664062 6.648438 8.890625 6.648438 C 9.339844 6.644531 9.789062 6.644531 10.238281 6.648438 C 10.65625 6.648438 11.074219 6.648438 11.492188 6.648438 L 11.808594 6.648438 C 12.742188 6.648438 13.675781 6.648438 14.609375 6.648438 C 15.515625 6.652344 16.421875 6.652344 17.328125 6.652344 C 18.417969 6.648438 19.511719 6.648438 20.601562 6.652344 L 20.757812 6.652344 C 21.125 6.652344 21.488281 6.652344 21.851562 6.652344 C 22.296875 6.652344 22.742188 6.652344 23.1875 6.652344 C 23.414062 6.652344 23.640625 6.652344 23.867188 6.652344 C 24.113281 6.652344 24.359375 6.652344 24.605469 6.65625 L 24.820312 6.652344 C 25.21875 6.65625 25.558594 6.679688 25.875 6.9375 C 26.246094 7.324219 26.304688 7.6875 26.296875 8.207031 L 26.296875 8.417969 C 26.300781 8.648438 26.296875 8.878906 26.296875 9.109375 C 26.296875 9.277344 26.296875 9.441406 26.296875 9.609375 C 26.300781 10.011719 26.296875 10.417969 26.296875 10.820312 C 26.296875 11.292969 26.296875 11.761719 26.296875 12.230469 C 26.296875 13.070312 26.292969 13.910156 26.292969 14.75 C 26.289062 15.566406 26.289062 16.378906 26.289062 17.195312 C 26.289062 18.175781 26.289062 19.160156 26.289062 20.140625 L 26.289062 20.28125 C 26.289062 20.609375 26.289062 20.9375 26.289062 21.265625 C 26.289062 21.664062 26.289062 22.0625 26.285156 22.464844 C 26.285156 22.667969 26.285156 22.871094 26.285156 23.074219 C 26.285156 23.296875 26.285156 23.515625 26.28125 23.738281 L 26.285156 23.933594 C 26.277344 24.371094 26.207031 24.726562 25.886719 25.050781 L 25.667969 25.191406 C 25.460938 25.304688 25.289062 25.320312 25.058594 25.320312 L 24.859375 25.324219 L 24.410156 25.324219 C 24.195312 25.324219 23.984375 25.324219 23.769531 25.324219 C 23.589844 25.324219 23.40625 25.328125 23.222656 25.328125 C 22.621094 25.328125 22.019531 25.332031 21.417969 25.332031 L 20.949219 25.332031 C 19.75 25.335938 18.550781 25.335938 17.355469 25.335938 L 17.183594 25.339844 C 16.277344 25.339844 15.371094 25.339844 14.464844 25.34375 C 13.53125 25.347656 12.601562 25.351562 11.667969 25.351562 C 11.144531 25.351562 10.625 25.351562 10.101562 25.355469 C 9.65625 25.355469 9.210938 25.355469 8.765625 25.355469 C 8.535156 25.355469 8.308594 25.355469 8.082031 25.359375 C 7.835938 25.359375 7.589844 25.359375 7.34375 25.359375 L 7.125 25.359375 C 6.660156 25.355469 6.339844 25.269531 6 24.9375 C 5.710938 24.578125 5.714844 24.183594 5.71875 23.738281 L 5.714844 23.527344 C 5.714844 23.296875 5.714844 23.066406 5.714844 22.832031 C 5.714844 22.667969 5.714844 22.5 5.714844 22.335938 C 5.714844 21.929688 5.714844 21.527344 5.714844 21.125 C 5.714844 20.796875 5.714844 20.464844 5.714844 20.136719 L 5.714844 19.710938 C 5.710938 18.820312 5.714844 17.929688 5.714844 17.039062 C 5.714844 16.222656 5.714844 15.410156 5.710938 14.59375 C 5.710938 13.664062 5.710938 12.730469 5.710938 11.800781 L 5.710938 11.65625 C 5.710938 11.332031 5.710938 11.003906 5.710938 10.675781 C 5.707031 10.273438 5.707031 9.875 5.710938 9.476562 C 5.710938 9.269531 5.710938 9.066406 5.710938 8.863281 C 5.707031 8.640625 5.710938 8.421875 5.710938 8.199219 L 5.707031 8.003906 C 5.714844 7.59375 5.78125 7.308594 6.0625 7 C 6.441406 6.644531 6.835938 6.644531 7.332031 6.648438 M 6.3125 7.5 C 6.238281 7.648438 6.242188 7.734375 6.242188 7.898438 L 6.242188 8.476562 C 6.238281 8.707031 6.238281 8.9375 6.238281 9.167969 L 6.238281 9.65625 C 6.238281 10.105469 6.238281 10.550781 6.238281 10.996094 C 6.238281 11.277344 6.238281 11.554688 6.238281 11.832031 C 6.234375 12.605469 6.234375 13.375 6.234375 14.144531 L 6.234375 14.898438 C 6.234375 15.703125 6.234375 16.511719 6.230469 17.316406 C 6.230469 18.144531 6.230469 18.972656 6.230469 19.796875 C 6.230469 20.261719 6.230469 20.726562 6.226562 21.191406 C 6.226562 21.628906 6.226562 22.066406 6.226562 22.503906 C 6.226562 22.664062 6.226562 22.824219 6.226562 22.984375 C 6.226562 23.203125 6.226562 23.421875 6.226562 23.640625 L 6.226562 23.835938 C 6.226562 24.261719 6.226562 24.261719 6.4375 24.625 C 6.628906 24.796875 6.75 24.835938 7.007812 24.835938 L 7.207031 24.839844 L 7.421875 24.835938 L 7.652344 24.839844 C 7.863281 24.839844 8.074219 24.839844 8.285156 24.839844 C 8.511719 24.839844 8.742188 24.839844 8.96875 24.839844 C 9.414062 24.839844 9.859375 24.84375 10.304688 24.84375 C 10.773438 24.839844 11.238281 24.84375 11.707031 24.84375 L 11.863281 24.84375 C 12.847656 24.84375 13.828125 24.84375 14.8125 24.84375 C 15.710938 24.84375 16.609375 24.84375 17.507812 24.847656 C 18.429688 24.847656 19.355469 24.851562 20.277344 24.847656 C 20.792969 24.847656 21.3125 24.851562 21.832031 24.851562 C 22.273438 24.851562 22.714844 24.851562 23.15625 24.851562 C 23.378906 24.851562 23.605469 24.851562 23.828125 24.851562 C 24.074219 24.855469 24.316406 24.851562 24.5625 24.851562 L 24.777344 24.855469 C 25.1875 24.851562 25.1875 24.851562 25.542969 24.664062 C 25.730469 24.453125 25.757812 24.304688 25.757812 24.03125 L 25.757812 23.457031 C 25.761719 23.226562 25.761719 23 25.761719 22.769531 L 25.761719 22.28125 C 25.761719 21.835938 25.761719 21.390625 25.761719 20.945312 L 25.761719 20.113281 C 25.765625 19.347656 25.765625 18.578125 25.765625 17.808594 L 25.765625 17.0625 C 25.765625 16.257812 25.765625 15.457031 25.769531 14.652344 C 25.769531 13.828125 25.769531 13.007812 25.769531 12.183594 C 25.769531 11.71875 25.769531 11.257812 25.773438 10.792969 C 25.773438 10.359375 25.773438 9.921875 25.773438 9.488281 C 25.773438 9.328125 25.773438 9.167969 25.773438 9.007812 C 25.773438 8.789062 25.773438 8.574219 25.773438 8.355469 L 25.773438 8.160156 C 25.773438 7.738281 25.773438 7.738281 25.5625 7.375 C 25.371094 7.203125 25.25 7.164062 24.992188 7.164062 L 24.792969 7.160156 L 24.578125 7.164062 L 24.347656 7.160156 C 24.136719 7.160156 23.925781 7.160156 23.714844 7.160156 C 23.488281 7.160156 23.257812 7.160156 23.03125 7.160156 C 22.585938 7.160156 22.140625 7.15625 21.695312 7.15625 C 21.226562 7.160156 20.761719 7.15625 20.292969 7.15625 L 20.136719 7.15625 C 19.152344 7.15625 18.171875 7.15625 17.1875 7.15625 C 16.289062 7.15625 15.390625 7.15625 14.492188 7.152344 C 13.570312 7.152344 12.644531 7.148438 11.722656 7.152344 C 11.207031 7.152344 10.6875 7.148438 10.167969 7.148438 C 9.726562 7.148438 9.285156 7.148438 8.84375 7.148438 C 8.621094 7.148438 8.394531 7.148438 8.171875 7.148438 C 7.925781 7.148438 7.683594 7.148438 7.4375 7.148438 L 7.222656 7.144531 C 6.808594 7.152344 6.59375 7.183594 6.3125 7.5 "/>
<path style=" stroke:none;fill-rule:nonzero;fill:rgb(20.392157%,20.392157%,20.392157%);fill-opacity:1;" d="M 7.78125 10.484375 L 8.371094 10.484375 C 8.605469 10.484375 8.839844 10.484375 9.074219 10.484375 C 9.238281 10.484375 9.40625 10.484375 9.574219 10.484375 C 9.984375 10.484375 10.390625 10.484375 10.800781 10.484375 C 11.128906 10.484375 11.460938 10.484375 11.792969 10.484375 L 12.222656 10.484375 C 13.121094 10.484375 14.019531 10.484375 14.917969 10.484375 C 15.691406 10.484375 16.460938 10.484375 17.234375 10.484375 C 18.226562 10.484375 19.214844 10.484375 20.207031 10.484375 L 20.347656 10.484375 C 20.679688 10.484375 21.011719 10.484375 21.34375 10.484375 C 21.746094 10.484375 22.148438 10.484375 22.554688 10.484375 C 22.757812 10.484375 22.964844 10.484375 23.171875 10.484375 C 23.394531 10.484375 23.617188 10.484375 23.839844 10.484375 L 24.375 10.484375 C 24.5 10.5 24.5 10.5 24.625 10.625 C 24.636719 10.792969 24.640625 10.957031 24.640625 11.128906 C 24.640625 11.179688 24.640625 11.234375 24.640625 11.285156 C 24.644531 11.464844 24.640625 11.640625 24.640625 11.816406 C 24.640625 11.945312 24.644531 12.070312 24.644531 12.199219 C 24.644531 12.542969 24.644531 12.886719 24.644531 13.230469 C 24.644531 13.519531 24.644531 13.804688 24.644531 14.09375 C 24.644531 14.769531 24.644531 15.449219 24.644531 16.125 C 24.644531 16.824219 24.644531 17.523438 24.644531 18.222656 C 24.648438 18.824219 24.648438 19.421875 24.648438 20.023438 C 24.648438 20.382812 24.648438 20.742188 24.648438 21.101562 C 24.648438 21.4375 24.648438 21.773438 24.648438 22.109375 C 24.648438 22.234375 24.648438 22.359375 24.648438 22.484375 C 24.648438 22.652344 24.648438 22.820312 24.648438 22.988281 L 24.648438 23.140625 C 24.648438 23.46875 24.648438 23.46875 24.546875 23.605469 C 24.40625 23.710938 24.324219 23.710938 24.152344 23.710938 L 23.566406 23.710938 C 23.335938 23.714844 23.101562 23.710938 22.871094 23.710938 C 22.703125 23.710938 22.539062 23.710938 22.371094 23.710938 C 21.96875 23.714844 21.5625 23.714844 21.15625 23.710938 C 20.78125 23.710938 20.40625 23.710938 20.03125 23.710938 C 19.933594 23.710938 19.839844 23.710938 19.746094 23.710938 C 18.855469 23.714844 17.960938 23.710938 17.070312 23.710938 C 16.304688 23.710938 15.542969 23.710938 14.777344 23.710938 C 13.792969 23.714844 12.8125 23.714844 11.828125 23.710938 L 11.6875 23.710938 C 11.359375 23.710938 11.03125 23.710938 10.703125 23.714844 C 10.300781 23.714844 9.902344 23.714844 9.5 23.710938 C 9.296875 23.710938 9.09375 23.710938 8.886719 23.710938 C 8.667969 23.710938 8.445312 23.710938 8.222656 23.710938 L 7.695312 23.710938 C 7.527344 23.679688 7.472656 23.636719 7.375 23.5 C 7.355469 23.324219 7.351562 23.164062 7.351562 22.988281 L 7.351562 22.828125 C 7.351562 22.652344 7.351562 22.476562 7.351562 22.296875 C 7.351562 22.171875 7.351562 22.046875 7.351562 21.917969 C 7.351562 21.574219 7.351562 21.230469 7.351562 20.886719 C 7.351562 20.523438 7.351562 20.164062 7.351562 19.804688 C 7.351562 19.199219 7.351562 18.597656 7.355469 17.992188 C 7.355469 17.292969 7.355469 16.59375 7.355469 15.894531 C 7.355469 15.21875 7.355469 14.546875 7.355469 13.875 C 7.355469 13.589844 7.355469 13.304688 7.355469 13.015625 C 7.355469 12.679688 7.355469 12.34375 7.359375 12.003906 C 7.359375 11.882812 7.359375 11.757812 7.359375 11.632812 C 7.355469 11.464844 7.359375 11.296875 7.359375 11.128906 L 7.359375 10.976562 C 7.359375 10.609375 7.40625 10.484375 7.78125 10.484375 M 7.875 11 L 7.875 23.1875 L 24.125 23.1875 L 24.125 11 Z M 7.875 11 "/>
<path style=" stroke:none;fill-rule:nonzero;fill:rgb(20.784314%,20.784314%,20.392157%);fill-opacity:1;" d="M 19.980469 12.335938 C 20.070312 12.410156 20.160156 12.484375 20.25 12.5625 L 20.363281 12.660156 C 21.0625 13.296875 21.453125 14.226562 21.515625 15.15625 C 21.535156 16.308594 21.230469 17.257812 20.476562 18.148438 C 19.777344 18.855469 18.804688 19.320312 17.804688 19.335938 L 17.484375 19.335938 C 17.0625 19.328125 16.707031 19.261719 16.308594 19.125 C 16.113281 19.058594 15.957031 19.007812 15.75 19 C 15.566406 19.105469 15.566406 19.105469 15.410156 19.273438 L 15.242188 19.429688 C 15.109375 19.648438 15.121094 19.65625 15.175781 19.886719 C 15.199219 20.066406 15.203125 20.15625 15.117188 20.316406 C 15.007812 20.445312 14.890625 20.5625 14.765625 20.683594 L 14.628906 20.816406 C 14.535156 20.910156 14.441406 21.003906 14.34375 21.09375 C 14.199219 21.234375 14.058594 21.375 13.917969 21.515625 C 13.824219 21.605469 13.730469 21.699219 13.640625 21.789062 L 13.511719 21.914062 C 13.101562 22.304688 12.640625 22.609375 12.054688 22.597656 C 11.535156 22.574219 11.242188 22.453125 10.886719 22.078125 C 10.566406 21.679688 10.480469 21.324219 10.460938 20.820312 C 10.566406 20.269531 10.90625 19.859375 11.289062 19.472656 L 11.429688 19.332031 C 11.523438 19.234375 11.621094 19.136719 11.714844 19.042969 C 11.863281 18.894531 12.007812 18.746094 12.152344 18.59375 C 12.246094 18.5 12.339844 18.40625 12.433594 18.3125 L 12.566406 18.175781 C 12.867188 17.878906 12.867188 17.878906 13.074219 17.867188 C 13.195312 17.886719 13.316406 17.910156 13.4375 17.9375 C 13.59375 17.824219 13.691406 17.738281 13.8125 17.597656 L 13.90625 17.496094 C 13.980469 17.417969 14.050781 17.332031 14.125 17.25 L 14.058594 17.046875 L 13.972656 16.777344 L 13.929688 16.644531 C 13.597656 15.601562 13.707031 14.558594 14.191406 13.582031 C 14.777344 12.5625 15.695312 11.914062 16.828125 11.605469 C 17.941406 11.398438 19.074219 11.65625 19.980469 12.335938 M 15.0625 13.199219 C 14.398438 14.011719 14.175781 14.902344 14.25 15.9375 C 14.382812 16.867188 14.890625 17.625 15.617188 18.207031 C 16.476562 18.8125 17.46875 18.945312 18.488281 18.773438 C 19.359375 18.527344 20.128906 17.953125 20.585938 17.167969 C 21.015625 16.296875 21.164062 15.382812 20.898438 14.4375 C 20.574219 13.539062 19.976562 12.816406 19.125 12.375 C 17.699219 11.75 16.128906 12.050781 15.0625 13.199219 "/>
<path style=" stroke:none;fill-rule:nonzero;fill:rgb(98.823529%,34.117648%,34.509805%);fill-opacity:1;" d="M 18.699219 13.734375 L 18.875 13.875 L 18.984375 13.960938 C 19.367188 14.300781 19.578125 14.738281 19.652344 15.242188 C 19.671875 15.84375 19.515625 16.347656 19.125 16.808594 C 18.6875 17.253906 18.222656 17.4375 17.601562 17.460938 C 17.222656 17.453125 16.949219 17.382812 16.625 17.1875 L 16.492188 17.109375 C 16.070312 16.828125 15.804688 16.417969 15.664062 15.933594 C 15.566406 15.3125 15.625 14.796875 15.996094 14.265625 C 16.707031 13.414062 17.71875 13.195312 18.699219 13.734375 "/>
<path style=" stroke:none;fill-rule:nonzero;fill:rgb(20%,20%,20%);fill-opacity:1;" d="M 17.910156 8.03125 L 18.09375 8.03125 C 18.289062 8.03125 18.488281 8.03125 18.6875 8.03125 C 18.824219 8.03125 18.960938 8.03125 19.097656 8.03125 C 19.386719 8.03125 19.675781 8.03125 19.960938 8.035156 C 20.332031 8.035156 20.699219 8.035156 21.070312 8.035156 C 21.355469 8.035156 21.636719 8.035156 21.921875 8.035156 C 22.058594 8.035156 22.195312 8.035156 22.332031 8.035156 C 22.519531 8.035156 22.710938 8.035156 22.902344 8.039062 L 23.070312 8.035156 C 23.371094 8.039062 23.570312 8.054688 23.8125 8.25 C 24.011719 8.484375 24.027344 8.695312 24.019531 8.992188 C 23.984375 9.246094 23.882812 9.382812 23.6875 9.539062 C 23.421875 9.660156 23.191406 9.652344 22.902344 9.652344 L 22.722656 9.652344 C 22.527344 9.65625 22.328125 9.65625 22.132812 9.65625 L 21.71875 9.660156 C 21.433594 9.660156 21.144531 9.660156 20.855469 9.660156 C 20.488281 9.660156 20.121094 9.664062 19.753906 9.664062 C 19.46875 9.667969 19.1875 9.667969 18.902344 9.667969 C 18.765625 9.667969 18.628906 9.667969 18.496094 9.671875 C 18.304688 9.671875 18.117188 9.671875 17.925781 9.671875 L 17.757812 9.671875 C 17.402344 9.667969 17.214844 9.59375 16.957031 9.347656 C 16.777344 9.128906 16.792969 8.894531 16.8125 8.625 C 17.042969 8.101562 17.386719 8.027344 17.910156 8.03125 "/>
<path style=" stroke:none;fill-rule:nonzero;fill:rgb(98.039216%,34.509805%,34.509805%);fill-opacity:1;" d="M 13 18.5 C 13.226562 18.597656 13.371094 18.734375 13.542969 18.910156 L 13.710938 19.078125 L 13.882812 19.253906 C 13.996094 19.371094 14.109375 19.484375 14.222656 19.601562 L 14.375 19.753906 C 14.492188 19.878906 14.492188 19.878906 14.625 19.9375 C 14.523438 20.195312 14.339844 20.367188 14.148438 20.558594 L 14.042969 20.664062 C 13.96875 20.738281 13.894531 20.8125 13.820312 20.886719 C 13.707031 21 13.597656 21.113281 13.484375 21.226562 L 13.167969 21.542969 C 12.839844 21.867188 12.488281 22.101562 12.015625 22.136719 C 11.671875 22.109375 11.414062 21.9375 11.191406 21.683594 C 11.03125 21.453125 10.988281 21.289062 10.980469 21.015625 L 10.972656 20.859375 C 11.039062 20.421875 11.351562 20.121094 11.65625 19.824219 L 11.773438 19.707031 C 11.894531 19.585938 12.019531 19.46875 12.140625 19.347656 L 12.390625 19.101562 C 12.59375 18.898438 12.796875 18.699219 13 18.5 "/>
<path style=" stroke:none;fill-rule:nonzero;fill:rgb(20.784314%,20.392157%,20.392157%);fill-opacity:1;" d="M 18.777344 13.21875 C 19.480469 13.628906 19.871094 14.140625 20.085938 14.933594 C 20.230469 15.625 20.058594 16.324219 19.675781 16.917969 C 19.230469 17.492188 18.65625 17.839844 17.9375 17.9375 C 17.246094 18.007812 16.621094 17.820312 16.058594 17.414062 C 15.621094 17.050781 15.308594 16.558594 15.1875 16 C 15.128906 15.140625 15.1875 14.476562 15.761719 13.789062 C 16.554688 12.96875 17.738281 12.707031 18.777344 13.21875 M 16.046875 14.199219 C 15.742188 14.574219 15.578125 15.0625 15.605469 15.546875 C 15.683594 16.117188 15.894531 16.625 16.335938 17.003906 C 16.875 17.394531 17.335938 17.496094 18 17.4375 C 18.59375 17.308594 19.027344 17.003906 19.367188 16.503906 C 19.652344 16.003906 19.722656 15.429688 19.574219 14.871094 C 19.363281 14.296875 19.015625 13.855469 18.453125 13.59375 C 17.527344 13.242188 16.714844 13.5 16.046875 14.199219 "/>
<path style=" stroke:none;fill-rule:nonzero;fill:rgb(92.54902%,34.901962%,35.294119%);fill-opacity:1;" d="M 18.050781 8.476562 L 18.222656 8.476562 C 18.410156 8.476562 18.597656 8.476562 18.78125 8.476562 C 18.914062 8.476562 19.042969 8.476562 19.171875 8.476562 C 19.445312 8.476562 19.714844 8.476562 19.988281 8.480469 C 20.335938 8.480469 20.683594 8.480469 21.035156 8.480469 C 21.300781 8.480469 21.570312 8.480469 21.835938 8.480469 C 21.964844 8.480469 22.09375 8.480469 22.222656 8.480469 C 22.402344 8.480469 22.582031 8.480469 22.761719 8.484375 L 22.921875 8.480469 C 23.167969 8.484375 23.292969 8.484375 23.5 8.625 C 23.542969 8.945312 23.542969 8.945312 23.417969 9.105469 C 23.230469 9.25 22.996094 9.214844 22.765625 9.210938 L 22.597656 9.210938 C 22.414062 9.214844 22.230469 9.214844 22.046875 9.210938 C 21.917969 9.210938 21.789062 9.210938 21.660156 9.214844 C 21.390625 9.214844 21.125 9.210938 20.855469 9.210938 C 20.511719 9.210938 20.167969 9.210938 19.824219 9.210938 C 19.558594 9.214844 19.292969 9.214844 19.027344 9.210938 C 18.902344 9.210938 18.773438 9.210938 18.648438 9.214844 C 18.46875 9.214844 18.292969 9.210938 18.117188 9.210938 L 17.957031 9.214844 C 17.746094 9.210938 17.589844 9.203125 17.40625 9.101562 C 17.3125 9 17.3125 9 17.285156 8.84375 C 17.359375 8.425781 17.699219 8.472656 18.050781 8.476562 "/>
<path style=" stroke:none;fill-rule:nonzero;fill:rgb(20.784314%,20.392157%,20.392157%);fill-opacity:1;" d="M 9.230469 8.074219 C 9.429688 8.230469 9.574219 8.398438 9.6875 8.625 C 9.695312 8.917969 9.667969 9.171875 9.480469 9.402344 C 9.257812 9.617188 9.160156 9.679688 8.851562 9.707031 C 8.515625 9.679688 8.328125 9.585938 8.101562 9.335938 C 7.972656 9.066406 7.949219 8.855469 8 8.5625 C 8.238281 8.066406 8.707031 7.84375 9.230469 8.074219 "/>
<path style=" stroke:none;fill-rule:nonzero;fill:rgb(20.392157%,20%,20%);fill-opacity:1;" d="M 11.375 8 C 11.621094 8.128906 11.789062 8.261719 11.9375 8.5 C 11.988281 8.769531 12 9.058594 11.875 9.3125 C 11.738281 9.484375 11.585938 9.625 11.375 9.6875 C 11.046875 9.71875 10.835938 9.683594 10.5625 9.5 C 10.371094 9.285156 10.296875 9.121094 10.285156 8.839844 C 10.296875 8.59375 10.335938 8.441406 10.5 8.25 C 10.78125 8.007812 11.015625 7.929688 11.375 8 M 13.894531 8.105469 C 14.105469 8.285156 14.226562 8.414062 14.269531 8.695312 C 14.28125 8.949219 14.261719 9.101562 14.148438 9.335938 C 13.925781 9.585938 13.738281 9.671875 13.40625 9.714844 C 13.101562 9.675781 12.914062 9.550781 12.710938 9.324219 C 12.550781 9.070312 12.578125 8.789062 12.625 8.5 C 12.726562 8.296875 12.871094 8.175781 13.050781 8.039062 C 13.371094 7.949219 13.601562 7.957031 13.894531 8.105469 "/>
<path style=" stroke:none;fill-rule:nonzero;fill:rgb(95.294118%,34.901962%,34.901962%);fill-opacity:1;" d="M 14.375 17.6875 C 14.585938 17.757812 14.632812 17.816406 14.769531 17.984375 C 14.957031 18.207031 15.148438 18.386719 15.375 18.5625 C 15.285156 18.773438 15.167969 18.917969 15.007812 19.082031 L 14.878906 19.21875 C 14.75 19.3125 14.75 19.3125 14.628906 19.296875 C 14.410156 19.21875 14.265625 19.046875 14.105469 18.886719 L 14 18.785156 C 13.898438 18.6875 13.898438 18.6875 13.75 18.5 C 13.777344 18.242188 13.914062 18.128906 14.097656 17.953125 L 14.253906 17.800781 Z M 14.375 17.6875 "/>
<path style=" stroke:none;fill-rule:nonzero;fill:rgb(94.117647%,36.078432%,36.078432%);fill-opacity:1;" d="M 13.625 8.5 C 13.746094 8.605469 13.746094 8.605469 13.8125 8.75 C 13.796875 8.960938 13.777344 9.035156 13.625 9.1875 C 13.429688 9.207031 13.300781 9.21875 13.132812 9.113281 C 13.035156 8.960938 13.035156 8.867188 13.0625 8.6875 C 13.203125 8.460938 13.375 8.464844 13.625 8.5 "/>
<path style=" stroke:none;fill-rule:nonzero;fill:rgb(94.509804%,36.078432%,36.078432%);fill-opacity:1;" d="M 11.121094 8.480469 C 11.3125 8.5 11.3125 8.5 11.433594 8.570312 C 11.5 8.6875 11.5 8.6875 11.488281 8.878906 C 11.4375 9.0625 11.4375 9.0625 11.3125 9.1875 C 11.128906 9.210938 11.128906 9.210938 10.9375 9.1875 C 10.816406 9.082031 10.816406 9.082031 10.75 8.9375 C 10.769531 8.65625 10.824219 8.511719 11.121094 8.480469 "/>
<path style=" stroke:none;fill-rule:nonzero;fill:rgb(95.294118%,35.686275%,35.686275%);fill-opacity:1;" d="M 8.808594 8.480469 C 9 8.5 9 8.5 9.117188 8.574219 C 9.214844 8.726562 9.214844 8.820312 9.1875 9 C 9.117188 9.113281 9.117188 9.113281 9 9.1875 C 8.808594 9.207031 8.808594 9.207031 8.625 9.1875 C 8.5 9.0625 8.5 9.0625 8.484375 8.84375 C 8.503906 8.570312 8.53125 8.511719 8.808594 8.480469 "/>
</g>
</svg>
